# Blender v2.79 (sub 0) OBJ File: 'Bar.blend'
# www.blender.org
o can_light_Circle.005
v 0.000000 0.000000 -0.476262
v -0.238131 0.000000 -0.412455
v -0.412455 0.000000 -0.238131
v -0.476262 0.000000 0.000000
v -0.412455 0.000000 0.238131
v -0.238131 0.000000 0.412455
v -0.000000 0.000000 0.476262
v 0.238131 0.000000 0.412455
v 0.412455 0.000000 0.238131
v 0.476262 0.000000 0.000000
v 0.412455 0.000000 -0.238131
v 0.238131 0.000000 -0.412455
v 0.000000 -0.089480 -0.305709
v -0.152854 -0.089480 -0.264751
v -0.264751 -0.089480 -0.152854
v -0.305709 -0.089480 0.000000
v -0.264751 -0.089480 0.152854
v -0.152854 -0.089480 0.264751
v -0.000000 -0.089480 0.305709
v 0.152854 -0.089480 0.264751
v 0.264751 -0.089480 0.152854
v 0.305709 -0.089480 0.000000
v 0.264751 -0.089480 -0.152854
v 0.152854 -0.089480 -0.264751
v 0.000000 -0.004226 -0.305709
v -0.152854 -0.004226 -0.264751
v -0.264751 -0.004226 -0.152854
v -0.305709 -0.004226 0.000000
v -0.264751 -0.004226 0.152854
v -0.152854 -0.004226 0.264751
v -0.000000 -0.004226 0.305709
v 0.152854 -0.004226 0.264751
v 0.264751 -0.004226 0.152854
v 0.305709 -0.004226 0.000000
v 0.264751 -0.004226 -0.152854
v 0.152854 -0.004226 -0.264751
v 0.000000 -0.004226 -0.279724
v -0.139862 -0.004226 -0.242248
v -0.242248 -0.004226 -0.139862
v -0.279724 -0.004226 0.000000
v -0.242248 -0.004226 0.139862
v -0.139862 -0.004226 0.242248
v -0.000000 -0.004226 0.279724
v 0.139862 -0.004226 0.242248
v 0.242248 -0.004226 0.139862
v 0.279724 -0.004226 0.000000
v 0.242248 -0.004226 -0.139862
v 0.139862 -0.004226 -0.242248
v -0.020025 -0.093637 -0.074735
v -0.069369 -0.093637 -0.040050
v -0.074735 -0.093637 0.020025
v -0.040050 -0.093637 0.069369
v 0.020025 -0.093637 0.074735
v 0.069369 -0.093637 0.040050
v 0.074735 -0.093637 -0.020025
v 0.040050 -0.093637 -0.069369
v 0.000000 -0.093637 0.000000
v -0.158825 -0.083215 0.275093
v -0.000000 -0.083215 0.317650
v -0.275093 -0.083215 -0.158825
v -0.317650 -0.083215 0.000000
v 0.317650 -0.083215 0.000000
v 0.275093 -0.083215 -0.158825
v 0.158825 -0.083215 0.275093
v -0.275093 -0.083215 0.158825
v 0.158825 -0.083215 -0.275093
v 0.000000 -0.083215 -0.317650
v -0.158825 -0.083215 -0.275093
v 0.275093 -0.083215 0.158825
vt 0.794494 0.912946
vt 0.846749 0.908907
vt 0.847780 0.912999
vt 0.721703 0.840091
vt 0.725872 0.787918
vt 0.725817 0.839052
vt 0.920809 0.786976
vt 0.891127 0.743732
vt 0.894165 0.740789
vt 0.893975 0.886418
vt 0.891035 0.883388
vt 0.751384 0.883335
vt 0.748347 0.886278
vt 0.846862 0.718182
vt 0.848018 0.714121
vt 0.748536 0.740649
vt 0.795762 0.718160
vt 0.751477 0.743679
vt 0.920709 0.840302
vt 0.916640 0.839148
vt 0.795649 0.908885
vt 0.794732 0.714067
vt 0.721802 0.786765
vt 0.916695 0.788014
vt 0.840603 0.742355
vt 0.769272 0.761194
vt 0.892455 0.832875
vt 0.801909 0.884711
vt 0.802424 0.742218
vt 0.750056 0.794192
vt 0.892610 0.794686
vt 0.840087 0.884849
vt 0.749902 0.832380
vt 0.873614 0.761542
vt 0.873239 0.865873
vt 0.768898 0.865525
vt 0.773502 0.860959
vt 0.838900 0.748604
vt 0.773835 0.765792
vt 0.886199 0.831173
vt 0.803612 0.878462
vt 0.804073 0.748480
vt 0.756313 0.795894
vt 0.886334 0.796340
vt 0.838439 0.878587
vt 0.756178 0.830726
vt 0.869010 0.766108
vt 0.868676 0.861275
vt 0.816623 0.830574
vt 0.825888 0.796492
vt 0.804211 0.808906
vt 0.838301 0.818161
vt 0.836036 0.805070
vt 0.829719 0.828308
vt 0.806476 0.821997
vt 0.821256 0.813533
vt 0.812793 0.798759
vt 0.977848 0.855605
vt 0.977998 0.771603
vt 0.706723 0.698868
vt 0.664664 0.771462
vt 0.779382 0.656999
vt 0.779280 0.970068
vt 0.935788 0.928199
vt 0.935924 0.698889
vt 0.863232 0.656999
vt 0.664513 0.855463
vt 0.706588 0.928178
vt 0.863130 0.970068
vn -0.2323 -0.8855 0.4023
vn 0.0000 -0.9175 -0.3977
vn 0.0000 -0.8855 0.4646
vn -0.4646 -0.8855 0.0000
vn 0.3444 -0.9175 0.1989
vn 0.3977 -0.9175 0.0000
vn 0.4646 -0.8855 0.0000
vn -0.3444 -0.9175 0.1989
vn 0.4023 -0.8855 -0.2323
vn 0.2323 -0.8855 0.4023
vn -0.1989 -0.9175 -0.3444
vn 0.3444 -0.9175 -0.1989
vn -0.4023 -0.8855 0.2323
vn -0.1989 -0.9175 0.3444
vn 0.2323 -0.8855 -0.4023
vn -0.2323 -0.8855 -0.4023
vn 0.0000 -0.9175 0.3977
vn 0.1989 -0.9175 0.3444
vn 0.4023 -0.8855 0.2323
vn -0.3444 -0.9175 -0.1989
vn 0.1989 -0.9175 -0.3444
vn 0.0000 -0.8855 -0.4646
vn -0.4023 -0.8855 -0.2323
vn -0.3977 -0.9175 0.0000
vn -0.3786 -0.6532 0.6557
vn 0.3786 -0.6532 0.6557
vn -0.6557 -0.6532 -0.3786
vn 0.3786 -0.6532 -0.6557
vn 0.0000 -0.6532 0.7571
vn 0.6557 -0.6532 0.3786
vn -0.7571 -0.6532 0.0000
vn 0.0000 -0.6532 -0.7571
vn 0.7571 -0.6532 0.0000
vn -0.6557 -0.6532 0.3786
vn -0.3786 -0.6532 -0.6557
vn 0.6557 -0.6532 -0.3786
vn -0.1513 -0.9846 0.0874
vn 0.0876 -0.9845 -0.1518
vn -0.0874 -0.9846 -0.1513
vn 0.1518 -0.9845 0.0876
vn -0.0876 -0.9845 0.1518
vn 0.0000 -0.9846 -0.1747
vn -0.1518 -0.9845 -0.0876
vn 0.1747 -0.9846 0.0000
vn 0.0000 -0.9846 0.1747
vn -0.1747 -0.9846 0.0000
vn 0.1513 -0.9846 -0.0874
vn 0.0874 -0.9846 0.1513
vn -0.1223 -0.9696 0.2117
vn 0.1223 -0.9696 -0.2117
vn -0.2117 -0.9696 -0.1223
vn 0.2117 -0.9696 0.1223
vn 0.2297 -0.9713 -0.0615
vn 0.0615 -0.9713 0.2297
vn -0.2297 -0.9713 0.0615
vn 0.0000 -1.0000 0.0000
vn -0.0615 -0.9713 -0.2297
s 1
f 58/1/1 19/2/2 59/3/3
f 61/4/4 15/5/5 16/6/6
f 62/7/7 23/8/8 63/9/9
f 64/10/10 19/2/2 20/11/11
f 61/4/4 17/12/12 65/13/13
f 63/9/9 24/14/14 66/15/15
f 68/16/16 13/17/17 14/18/18
f 69/19/19 20/11/11 21/20/20
f 65/13/13 18/21/21 58/1/1
f 67/22/22 24/14/14 13/17/17
f 68/16/16 15/5/5 60/23/23
f 69/19/19 22/24/24 62/7/7
f 23/8/8 36/25/25 24/14/14
f 13/17/17 26/26/26 14/18/18
f 20/11/11 33/27/27 21/20/20
f 17/12/12 30/28/28 18/21/21
f 24/14/14 25/29/29 13/17/17
f 14/18/18 27/30/30 15/5/5
f 21/20/20 34/31/31 22/24/24
f 18/21/21 31/32/32 19/2/2
f 15/5/5 28/33/33 16/6/6
f 22/24/24 35/34/34 23/8/8
f 19/2/2 32/35/35 20/11/11
f 16/6/6 29/36/36 17/12/12
f 28/33/33 41/37/37 29/36/36
f 35/34/34 48/38/38 36/25/25
f 25/29/29 38/39/39 26/26/26
f 32/35/35 45/40/40 33/27/27
f 29/36/36 42/41/41 30/28/28
f 36/25/25 37/42/42 25/29/29
f 26/26/26 39/43/43 27/30/30
f 34/31/31 45/40/40 46/44/44
f 30/28/28 43/45/45 31/32/32
f 27/30/30 40/46/46 28/33/33
f 34/31/31 47/47/47 35/34/34
f 31/32/32 44/48/48 32/35/35
f 41/37/37 52/49/49 42/41/41
f 56/50/50 37/42/42 48/38/38
f 38/39/39 50/51/51 39/43/43
f 54/52/52 46/44/44 45/40/40
f 52/49/49 43/45/45 42/41/41
f 50/51/51 40/46/46 39/43/43
f 46/44/44 55/53/53 47/47/47
f 43/45/45 53/54/54 44/48/48
f 40/46/46 51/55/55 41/37/37
f 47/47/47 56/50/50 48/38/38
f 44/48/48 54/52/52 45/40/40
f 57/56/56 53/54/54 52/49/49
f 57/56/56 55/53/53 54/52/52
f 49/57/57 57/56/56 50/51/51
f 57/56/56 51/55/55 50/51/51
f 9/58/19 62/7/7 10/59/7
f 2/60/16 60/23/23 3/61/23
f 1/62/22 66/15/15 67/22/22
f 6/63/1 65/13/13 58/1/1
f 8/64/10 69/19/19 9/58/19
f 1/62/22 68/16/16 2/60/16
f 11/65/9 66/15/15 12/66/15
f 4/67/4 65/13/13 5/68/13
f 7/69/3 64/10/10 8/64/10
f 11/65/9 62/7/7 63/9/9
f 3/61/23 61/4/4 4/67/4
f 7/69/3 58/1/1 59/3/3
f 37/42/42 49/57/57 38/39/39
f 58/1/1 18/21/21 19/2/2
f 61/4/4 60/23/23 15/5/5
f 62/7/7 22/24/24 23/8/8
f 64/10/10 59/3/3 19/2/2
f 61/4/4 16/6/6 17/12/12
f 63/9/9 23/8/8 24/14/14
f 68/16/16 67/22/22 13/17/17
f 69/19/19 64/10/10 20/11/11
f 65/13/13 17/12/12 18/21/21
f 67/22/22 66/15/15 24/14/14
f 68/16/16 14/18/18 15/5/5
f 69/19/19 21/20/20 22/24/24
f 23/8/8 35/34/34 36/25/25
f 13/17/17 25/29/29 26/26/26
f 20/11/11 32/35/35 33/27/27
f 17/12/12 29/36/36 30/28/28
f 24/14/14 36/25/25 25/29/29
f 14/18/18 26/26/26 27/30/30
f 21/20/20 33/27/27 34/31/31
f 18/21/21 30/28/28 31/32/32
f 15/5/5 27/30/30 28/33/33
f 22/24/24 34/31/31 35/34/34
f 19/2/2 31/32/32 32/35/35
f 16/6/6 28/33/33 29/36/36
f 28/33/33 40/46/46 41/37/37
f 35/34/34 47/47/47 48/38/38
f 25/29/29 37/42/42 38/39/39
f 32/35/35 44/48/48 45/40/40
f 29/36/36 41/37/37 42/41/41
f 36/25/25 48/38/38 37/42/42
f 26/26/26 38/39/39 39/43/43
f 34/31/31 33/27/27 45/40/40
f 30/28/28 42/41/41 43/45/45
f 27/30/30 39/43/43 40/46/46
f 34/31/31 46/44/44 47/47/47
f 31/32/32 43/45/45 44/48/48
f 41/37/37 51/55/55 52/49/49
f 56/50/50 49/57/57 37/42/42
f 38/39/39 49/57/57 50/51/51
f 54/52/52 55/53/53 46/44/44
f 52/49/49 53/54/54 43/45/45
f 50/51/51 51/55/55 40/46/46
f 47/47/47 55/53/53 56/50/50
f 44/48/48 53/54/54 54/52/52
f 57/56/56 54/52/52 53/54/54
f 57/56/56 56/50/50 55/53/53
f 49/57/57 56/50/50 57/56/56
f 57/56/56 52/49/49 51/55/55
f 9/58/19 69/19/19 62/7/7
f 2/60/16 68/16/16 60/23/23
f 1/62/22 12/66/15 66/15/15
f 6/63/1 5/68/13 65/13/13
f 8/64/10 64/10/10 69/19/19
f 1/62/22 67/22/22 68/16/16
f 11/65/9 63/9/9 66/15/15
f 4/67/4 61/4/4 65/13/13
f 7/69/3 59/3/3 64/10/10
f 11/65/9 10/59/7 62/7/7
f 3/61/23 60/23/23 61/4/4
f 7/69/3 6/63/1 58/1/1
