# Blender v2.79 (sub 0) OBJ File: 'Bar.blend'
# www.blender.org
o light_fixture_Circle.042
v 0.173369 -0.689411 -0.240223
v 0.242732 -0.807589 -0.121579
v 0.173369 -0.925766 -0.002936
v 0.005911 -0.974717 0.046208
v -0.161547 -0.925766 -0.002936
v -0.230911 -0.807589 -0.121579
v -0.161547 -0.689411 -0.240223
v 0.005911 -0.640460 -0.289366
v -0.000000 -0.657297 -0.390996
v -0.210315 -0.720369 -0.330904
v -0.297431 -0.872636 -0.185828
v -0.210315 -1.024904 -0.040752
v 0.000000 -1.087976 0.019341
v 0.210315 -1.024904 -0.040752
v 0.297431 -0.872636 -0.185828
v 0.210315 -0.720369 -0.330904
v -0.000000 -0.207811 0.121615
v -0.190394 -0.264909 0.176015
v -0.269257 -0.402753 0.307349
v -0.190394 -0.540598 0.438683
v 0.000000 -0.597695 0.493083
v 0.190394 -0.540598 0.438683
v 0.269257 -0.402753 0.307349
v 0.190394 -0.264909 0.176015
v -0.000000 -0.235326 0.287574
v -0.095359 -0.263923 0.314820
v -0.134858 -0.332963 0.380599
v -0.095359 -0.402003 0.446378
v -0.000000 -0.430600 0.473624
v 0.095359 -0.402003 0.446378
v 0.134858 -0.332963 0.380599
v 0.095359 -0.263923 0.314820
v 0.029830 -0.331176 -0.113736
v 0.029830 -0.266974 -0.049283
v 0.029830 -0.267152 0.041689
v 0.029830 -0.331605 0.105891
v 0.029830 -0.422577 0.105714
v 0.029830 -0.486779 0.041261
v 0.029830 -0.486601 -0.049712
v 0.029830 -0.422149 -0.113913
v -0.029587 -0.331176 -0.113736
v -0.029587 -0.266974 -0.049283
v -0.029587 -0.267152 0.041689
v -0.029587 -0.331605 0.105891
v -0.029587 -0.422577 0.105714
v -0.029587 -0.486779 0.041261
v -0.029587 -0.486601 -0.049712
v -0.029587 -0.422149 -0.113913
v 0.029830 -0.078328 -0.048571
v 0.029830 -0.078505 0.042402
v -0.029587 -0.078328 -0.048571
v -0.029587 -0.078505 0.042402
v 0.000000 -0.000000 -0.303359
v -0.214507 -0.000000 -0.214508
v -0.303359 -0.000000 -0.000000
v -0.214507 -0.000000 0.214507
v 0.000000 -0.000000 0.303359
v 0.214508 -0.000000 0.214507
v 0.303359 -0.000000 -0.000000
v 0.214508 -0.000000 -0.214507
v 0.000000 -0.062885 -0.206730
v -0.146180 -0.062885 -0.146180
v -0.206730 -0.062885 -0.000000
v -0.146180 -0.062885 0.146180
v 0.000000 -0.062885 0.206730
v 0.146180 -0.062885 0.146180
v 0.206730 -0.062885 -0.000000
v 0.146180 -0.062885 -0.146180
v 0.000000 -0.085581 -0.080887
v -0.057196 -0.085581 -0.057196
v -0.080887 -0.085581 -0.000000
v -0.057196 -0.085581 0.057196
v 0.000000 -0.085581 0.080887
v 0.057196 -0.085581 0.057196
v 0.080887 -0.085581 -0.000000
v 0.057196 -0.085581 -0.057196
v -0.000000 -0.670555 -0.378364
v -0.197367 -0.729744 -0.321972
v -0.279118 -0.872636 -0.185828
v -0.197367 -1.015529 -0.049684
v 0.000000 -1.074718 0.006709
v 0.197367 -1.015529 -0.049684
v 0.279118 -0.872636 -0.185828
v 0.197367 -0.729744 -0.321972
v 0.005911 -0.662997 -0.266741
v 0.150788 -0.705347 -0.224224
v 0.210798 -0.807589 -0.121579
v 0.150788 -0.909830 -0.018935
v 0.005911 -0.952180 0.023582
v -0.138966 -0.909830 -0.018935
v -0.198976 -0.807589 -0.121579
v -0.138966 -0.705347 -0.224224
vt 0.128199 0.939409
vt 0.067788 0.949759
vt 0.132566 0.949756
vt 0.434738 0.496330
vt 0.368731 0.486805
vt 0.420490 0.538114
vt 0.497322 0.434922
vt 0.545446 0.487697
vt 0.545446 0.415505
vt 0.471399 0.409223
vt 0.493687 0.364196
vt 0.408814 0.470632
vt 0.368731 0.414613
vt 0.497322 0.471079
vt 0.493687 0.538483
vt 0.434738 0.409038
vt 0.420490 0.363826
vt 0.471399 0.496515
vt 0.194674 0.719640
vt 0.215910 0.751388
vt 0.194674 0.751388
vt 0.432451 0.570385
vt 0.411215 0.538483
vt 0.432451 0.538483
vt 0.194674 0.694977
vt 0.215910 0.719640
vt 0.536145 0.883425
vt 0.567946 0.948857
vt 0.536024 0.949357
vt 0.389967 0.570372
vt 0.368743 0.538483
vt 0.389979 0.538490
vt 0.215910 0.771625
vt 0.194674 0.771625
vt 0.173584 0.694977
vt 0.192732 0.728111
vt 0.171642 0.726678
vt 0.389979 0.593739
vt 0.368731 0.570364
vt 0.388934 0.907923
vt 0.421271 0.843617
vt 0.421394 0.908308
vt 0.173584 0.769113
vt 0.389979 0.587023
vt 0.411215 0.538501
vt 0.411215 0.587040
vt 0.513572 0.829502
vt 0.590640 0.828296
vt 0.590640 0.860090
vt 0.444347 0.961833
vt 0.388934 0.983236
vt 0.365981 0.929710
vt 0.586367 0.615506
vt 0.517239 0.640054
vt 0.520334 0.603508
vt 0.585440 0.470147
vt 0.567111 0.545383
vt 0.545446 0.470139
vt 0.594058 0.745887
vt 0.633060 0.679834
vt 0.633060 0.758808
vt 0.562239 0.648231
vt 0.567111 0.394935
vt 0.562239 0.778161
vt 0.586367 0.806168
vt 0.635847 0.397699
vt 0.619414 0.363826
vt 0.635847 0.542692
vt 0.619414 0.576592
vt 0.556080 0.725039
vt 0.594058 0.692068
vt 0.556080 0.703981
vt 0.600204 0.418899
vt 0.622055 0.470172
vt 0.543630 0.737667
vt 0.641778 0.441825
vt 0.627832 0.490235
vt 0.600204 0.521424
vt 0.526022 0.683630
vt 0.513572 0.696258
vt 0.438854 0.603508
vt 0.365981 0.843232
vt 0.445665 0.839995
vt 0.220265 0.605756
vt 0.298097 0.840793
vt 0.292417 0.603508
vt 0.097117 0.556551
vt 0.171642 0.796303
vt 0.162192 0.558574
vt 0.293535 0.601713
vt 0.225535 0.365451
vt 0.218395 0.603508
vt 0.293557 0.363826
vt 0.368731 0.603507
vt 0.361630 0.365451
vt 0.026710 0.558574
vt 0.099757 0.794068
vt 0.513572 0.843232
vt 0.500329 0.606438
vt 0.365981 0.843277
vt 0.158369 0.369759
vt 0.218395 0.420274
vt 0.160874 0.363826
vt 0.028036 0.422732
vt 0.079520 0.363826
vt 0.021990 0.420274
vt 0.082010 0.550618
vt 0.021984 0.500103
vt 0.079506 0.556551
vt 0.218390 0.500103
vt 0.158356 0.550618
vt 0.160859 0.556551
vt 0.212349 0.422732
vt 0.082024 0.369759
vt 0.028030 0.497646
vt 0.128199 0.806649
vt 0.032528 0.845538
vt 0.072156 0.939412
vt 0.021984 0.904816
vt 0.021984 0.841253
vt 0.067788 0.796306
vt 0.132566 0.796303
vt 0.167827 0.845532
vt 0.178371 0.904808
vt 0.178371 0.841246
vt 0.167827 0.900523
vt 0.032528 0.900530
vt 0.478208 0.856427
vt 0.444347 0.909422
vt 0.475749 0.912592
vt 0.212757 0.861504
vt 0.183445 0.932154
vt 0.215508 0.923718
vt 0.179780 0.796303
vt 0.178371 0.858889
vt 0.208214 0.682407
vt 0.171642 0.625790
vt 0.173359 0.694977
vt 0.207405 0.623705
vt 0.173359 0.556551
vt 0.626102 0.932729
vt 0.590640 0.868590
vt 0.591028 0.942013
vt 0.626103 0.817475
vt 0.624213 0.870435
vt 0.446484 0.981034
vt 0.478208 0.973347
vt 0.408814 0.434475
vt 0.411215 0.570385
vt 0.215910 0.694977
vt 0.568067 0.882925
vt 0.194674 0.696409
vt 0.368743 0.593732
vt 0.388811 0.843232
vt 0.194674 0.770545
vt 0.389979 0.538483
vt 0.513572 0.861296
vt 0.536145 0.806667
vt 0.568067 0.806168
vt 0.444347 0.930638
vt 0.421394 0.983620
vt 0.365981 0.960905
vt 0.543630 0.686829
vt 0.627832 0.450120
vt 0.641778 0.498556
vt 0.526023 0.734468
vt 0.513572 0.717316
vt 0.366718 0.606438
vt 0.218395 0.843277
vt 0.021984 0.796303
vt 0.353871 0.605756
vt 0.212344 0.497646
vt 0.072156 0.806652
vt 0.446484 0.843232
vt 0.215508 0.808350
vt 0.208214 0.564958
vt 0.594706 0.806168
vn 0.0000 -0.7085 -0.7057
vn 0.5987 -0.5636 -0.5690
vn 0.4165 -0.8697 -0.2648
vn 0.2718 0.4400 0.8559
vn 0.0000 -0.3606 0.9327
vn 0.6395 -0.1688 0.7499
vn 0.0000 0.9151 0.4031
vn 0.6395 0.7572 -0.1324
vn 0.0000 0.9490 -0.3151
vn -0.2718 0.8336 0.4808
vn -0.6395 0.7572 -0.1324
vn 0.0000 0.3584 0.9335
vn -0.6395 -0.1688 0.7499
vn 0.2718 0.8336 0.4808
vn 0.9045 0.2942 0.3088
vn -0.3844 0.6368 0.6684
vn -0.9045 0.2942 0.3088
vn 0.3844 0.6368 0.6684
vn 0.6302 -0.7167 -0.2985
vn -0.6302 -0.2957 -0.7179
vn 0.6302 -0.2957 -0.7179
vn 0.8044 0.2257 0.5495
vn -0.6302 0.2957 0.7179
vn 0.6302 0.2957 0.7179
vn 0.6302 -0.7179 0.2957
vn -0.6302 -0.7167 -0.2985
vn 0.7075 0.0027 -0.7067
vn 0.7067 -0.0027 0.7075
vn 0.6302 -0.2985 0.7167
vn -0.6302 -0.7179 0.2957
vn -0.6302 0.2985 -0.7167
vn 0.6302 0.2985 -0.7167
vn -0.8039 0.2291 -0.5488
vn 0.8039 0.2291 -0.5488
vn -0.6302 -0.2985 0.7167
vn -0.8044 0.2257 0.5495
vn -0.7075 0.0027 -0.7067
vn -0.7067 -0.0027 0.7075
vn -0.3857 -0.8381 -0.3857
vn -0.4098 -0.9122 0.0000
vn -0.5454 -0.8381 0.0000
vn 0.0000 -0.9122 0.4098
vn 0.3857 -0.8381 0.3857
vn 0.0000 -0.8381 0.5454
vn 0.2897 -0.9122 -0.2897
vn 0.0000 -0.8381 -0.5454
vn 0.3857 -0.8381 -0.3857
vn -0.2897 -0.9122 -0.2897
vn -0.3857 -0.8381 0.3857
vn 0.4098 -0.9122 0.0000
vn 0.5454 -0.8381 0.0000
vn 0.0786 -0.9938 -0.0786
vn 0.0000 -0.9122 -0.4098
vn 0.0000 -0.9938 -0.1111
vn -0.2897 -0.9122 0.2897
vn 0.0000 -0.9938 0.1111
vn 0.1111 -0.9938 0.0000
vn -0.1111 -0.9938 0.0000
vn 0.0786 -0.9938 0.0786
vn 0.2897 -0.9122 0.2897
vn -0.0786 -0.9938 0.0786
vn 0.5577 -0.8278 -0.0603
vn 0.7888 -0.4240 -0.4450
vn -0.7888 -0.4240 -0.4450
vn 0.0000 0.1470 -0.9891
vn 0.5577 -0.0202 -0.8297
vn -0.5577 -0.0202 -0.8297
vn 0.0000 -0.9951 0.0991
vn -0.5577 -0.8278 -0.0603
vn -0.4503 -0.6156 -0.6467
vn 0.0055 -0.3128 -0.9498
vn 0.4096 -0.6276 -0.6620
vn 0.2966 -0.8381 -0.4577
vn -0.3118 -0.8468 -0.4309
vn -0.3101 -0.3884 -0.8677
vn 0.2954 -0.4170 -0.8595
vn 0.4288 -0.2488 -0.8684
vn -0.0088 -0.1039 -0.9945
vn -0.4581 -0.2248 -0.8600
vn -0.6429 -0.5431 -0.5400
vn -0.0123 -0.9918 -0.1272
vn -0.4526 -0.8596 -0.2371
vn 0.0051 -0.9337 -0.3579
vn -0.2718 0.4400 0.8559
vn -0.0786 -0.9938 -0.0786
s 1
f 92/1/1 6/2/2 7/3/3
f 30/4/4 21/5/5 22/6/6
f 25/7/7 24/8/8 17/9/9
f 26/10/10 17/9/9 18/11/11
f 29/12/12 20/13/13 21/5/5
f 32/14/14 23/15/15 24/8/8
f 20/13/13 27/16/16 19/17/17
f 31/18/18 22/6/6 23/15/15
f 19/17/17 26/10/10 18/11/11
f 30/4/4 25/7/7 26/10/10
f 39/19/19 48/20/20 40/21/21
f 35/22/22 44/23/23 36/24/24
f 38/25/25 47/26/26 39/19/19
f 35/27/22 49/28/27 50/29/28
f 37/30/29 46/31/30 38/32/25
f 40/21/21 41/33/31 33/34/32
f 33/35/32 42/36/33 34/37/34
f 36/38/24 45/39/35 37/30/29
f 43/40/36 51/41/37 42/42/33
f 42/36/33 49/43/27 34/37/34
f 35/44/22 52/45/38 43/46/36
f 37/47/29 40/48/21 33/49/32
f 48/50/20 46/51/30 44/52/23
f 54/53/39 63/54/40 55/55/41
f 65/56/42 58/57/43 57/58/44
f 68/59/45 53/60/46 60/61/47
f 53/60/46 62/62/48 54/53/39
f 56/63/49 65/56/42 57/58/44
f 67/64/50 60/61/47 59/65/51
f 63/66/40 56/63/49 55/67/41
f 58/57/43 67/68/50 59/69/51
f 76/70/52 61/71/53 68/59/45
f 69/72/54 62/62/48 61/71/53
f 64/73/55 73/74/56 65/56/42
f 75/75/57 68/59/45 67/64/50
f 71/76/58 64/73/55 63/66/40
f 74/77/59 67/68/50 66/78/60
f 62/62/48 71/79/58 63/54/40
f 73/74/56 66/78/60 65/56/42
f 75/75/57 72/80/61 71/79/58
f 23/81/15 14/82/62 15/83/63
f 18/84/11 11/85/64 19/86/17
f 21/87/5 14/88/62 22/89/6
f 9/90/65 24/91/8 16/92/66
f 17/93/9 10/94/67 18/95/11
f 20/96/13 13/97/68 21/87/5
f 23/81/15 16/98/66 24/99/8
f 12/100/69 19/86/17 11/85/64
f 83/101/70 16/102/66 15/103/63
f 81/104/71 14/105/62 13/106/68
f 79/107/72 12/108/69 11/109/64
f 9/110/65 78/111/73 10/112/67
f 84/113/74 9/110/65 16/102/66
f 82/114/75 15/103/63 14/105/62
f 80/115/76 13/106/68 12/108/69
f 10/112/67 79/107/72 11/109/64
f 87/116/1 89/117/1 91/118/1
f 5/119/77 89/117/1 4/120/78
f 3/121/79 87/116/1 2/122/80
f 86/123/1 8/124/81 1/125/82
f 85/126/1 7/3/3 8/124/81
f 6/2/2 90/127/1 5/119/77
f 89/117/1 3/121/79 4/120/78
f 87/116/1 1/125/82 2/122/80
f 7/128/3 77/129/83 8/130/81
f 6/131/2 78/132/73 7/133/3
f 6/131/2 80/134/76 79/135/72
f 5/136/77 81/137/71 80/138/76
f 4/139/78 82/140/75 81/137/71
f 3/141/79 83/142/70 82/143/75
f 1/144/82 83/142/70 2/145/80
f 8/130/81 84/146/74 1/147/82
f 92/1/1 91/118/1 6/2/2
f 30/4/4 29/12/12 21/5/5
f 25/7/7 32/14/14 24/8/8
f 26/10/10 25/7/7 17/9/9
f 29/12/12 28/148/84 20/13/13
f 32/14/14 31/18/18 23/15/15
f 20/13/13 28/148/84 27/16/16
f 31/18/18 30/4/4 22/6/6
f 19/17/17 27/16/16 26/10/10
f 26/10/10 27/16/16 30/4/4
f 28/148/84 29/12/12 30/4/4
f 30/4/4 31/18/18 32/14/14
f 32/14/14 25/7/7 30/4/4
f 27/16/16 28/148/84 30/4/4
f 39/19/19 47/26/26 48/20/20
f 35/22/22 43/149/36 44/23/23
f 38/25/25 46/150/30 47/26/26
f 35/27/22 34/151/34 49/28/27
f 37/30/29 45/39/35 46/31/30
f 40/21/21 48/20/20 41/33/31
f 33/35/32 41/152/31 42/36/33
f 36/38/24 44/153/23 45/39/35
f 43/40/36 52/154/38 51/41/37
f 42/36/33 51/155/37 49/43/27
f 35/44/22 50/156/28 52/45/38
f 33/49/32 34/151/34 37/47/29
f 35/27/22 36/157/24 37/47/29
f 37/47/29 38/158/25 39/159/19
f 39/159/19 40/48/21 37/47/29
f 34/151/34 35/27/22 37/47/29
f 44/52/23 43/40/36 42/42/33
f 42/42/33 41/160/31 48/50/20
f 48/50/20 47/161/26 46/51/30
f 46/51/30 45/162/35 44/52/23
f 44/52/23 42/42/33 48/50/20
f 54/53/39 62/62/48 63/54/40
f 65/56/42 66/78/60 58/57/43
f 68/59/45 61/71/53 53/60/46
f 53/60/46 61/71/53 62/62/48
f 56/63/49 64/73/55 65/56/42
f 67/64/50 68/59/45 60/61/47
f 63/66/40 64/73/55 56/63/49
f 58/57/43 66/78/60 67/68/50
f 76/70/52 69/72/54 61/71/53
f 69/72/54 70/163/85 62/62/48
f 64/73/55 72/164/61 73/74/56
f 75/75/57 76/70/52 68/59/45
f 71/76/58 72/164/61 64/73/55
f 74/77/59 75/165/57 67/68/50
f 62/62/48 70/163/85 71/79/58
f 73/74/56 74/77/59 66/78/60
f 71/79/58 70/163/85 69/72/54
f 69/72/54 76/70/52 71/79/58
f 75/75/57 74/166/59 73/167/56
f 73/167/56 72/80/61 75/75/57
f 71/79/58 76/70/52 75/75/57
f 23/81/15 22/168/6 14/82/62
f 18/84/11 10/169/67 11/85/64
f 21/87/5 13/97/68 14/88/62
f 9/90/65 17/93/9 24/91/8
f 17/93/9 9/90/65 10/94/67
f 20/96/13 12/170/69 13/97/68
f 23/81/15 15/83/63 16/98/66
f 12/100/69 20/171/13 19/86/17
f 83/101/70 84/113/74 16/102/66
f 81/104/71 82/114/75 14/105/62
f 79/107/72 80/115/76 12/108/69
f 9/110/65 77/172/83 78/111/73
f 84/113/74 77/172/83 9/110/65
f 82/114/75 83/101/70 15/103/63
f 80/115/76 81/104/71 13/106/68
f 10/112/67 78/111/73 79/107/72
f 91/118/1 92/1/1 85/126/1
f 85/126/1 86/123/1 91/118/1
f 87/116/1 88/173/1 89/117/1
f 89/117/1 90/127/1 91/118/1
f 91/118/1 86/123/1 87/116/1
f 5/119/77 90/127/1 89/117/1
f 3/121/79 88/173/1 87/116/1
f 86/123/1 85/126/1 8/124/81
f 85/126/1 92/1/1 7/3/3
f 6/2/2 91/118/1 90/127/1
f 89/117/1 88/173/1 3/121/79
f 87/116/1 86/123/1 1/125/82
f 7/128/3 78/174/73 77/129/83
f 6/131/2 79/135/72 78/132/73
f 6/131/2 5/175/77 80/134/76
f 5/136/77 4/139/78 81/137/71
f 4/139/78 3/176/79 82/140/75
f 3/141/79 2/145/80 83/142/70
f 1/144/82 84/177/74 83/142/70
f 8/130/81 77/129/83 84/146/74
