# Blender v2.79 (sub 0) OBJ File: 'Bar.blend'
# www.blender.org
o glass_doors_Plane.007
v 0.086738 -0.000003 -0.023757
v 2.478718 -0.001230 -2.415733
v 0.086738 6.926576 -0.023757
v 2.478718 6.925349 -2.415733
v 0.023758 -0.000003 -0.086737
v 2.415737 -0.001230 -2.478714
v 0.023758 6.926576 -0.086737
v 2.415737 6.925349 -2.478714
v -0.086734 0.000003 0.023758
v -2.458354 -0.000318 2.395375
v -0.086734 6.926582 0.023758
v -2.458354 6.926262 2.395375
v -0.023753 0.000003 0.086739
v -2.395373 -0.000318 2.458355
v -0.023753 6.926582 0.086739
v -2.395373 6.926262 2.458355
vn 0.7071 0.0000 0.7071
vn -0.7071 0.0000 -0.7071
s off
f 4//1 1//1 2//1
f 5//2 8//2 6//2
f 12//2 9//2 10//2
f 13//1 16//1 14//1
f 4//1 3//1 1//1
f 5//2 7//2 8//2
f 12//2 11//2 9//2
f 13//1 15//1 16//1
