# Blender v2.79 (sub 0) OBJ File: 'Bar.blend'
# www.blender.org
o Walls_Plane.001
v -8.022335 0.000000 7.972314
v -8.022335 9.456206 7.992314
v 25.968811 0.000000 -19.989944
v 25.968811 9.456206 -19.989941
v -8.022335 0.000000 -7.998816
v -8.022335 9.456206 -7.998816
v 17.979033 0.000000 -7.998816
v 17.979033 9.456206 -7.998816
v 17.979033 0.000000 -19.989944
v 17.979033 9.456206 -19.989941
v -8.022335 2.368868 7.992314
v 25.968811 2.368868 -19.989944
v -8.022335 2.368869 -7.998816
v 17.979033 2.368869 -7.998816
v 17.979033 2.368869 -19.989944
v 20.953835 0.000000 7.992314
v 20.953835 9.456206 7.992314
v 16.919838 2.368869 7.992314
v -3.041696 2.368868 7.992314
v 16.919838 7.120693 7.992314
v -3.041696 7.120693 7.992314
v 9.935278 9.456206 -7.998816
v 9.941955 2.368869 -7.998816
v 9.941955 0.000000 -7.998816
v 17.457695 2.368869 7.992314
v 17.457695 2.010691 7.992314
v -3.533231 2.010691 7.992314
v -8.022335 2.275211 7.992314
v -8.022335 2.275212 -7.998816
v 17.979033 2.275212 -7.998816
v 17.979033 2.275212 -19.989944
v 25.968811 2.275211 -19.989944
v 9.941955 2.275212 -7.998816
v -3.534136 2.368869 7.992314
v 17.457695 2.368869 7.738577
v -3.534136 2.368869 7.738577
v 17.462227 2.010691 7.738577
v -3.533231 2.010691 7.738577
v 20.953835 2.368869 7.992314
v 20.953835 7.120693 7.992314
v 20.953835 2.275212 7.992314
v 25.959942 0.000000 2.972314
v 25.968811 9.456206 2.992314
v 25.968811 2.368869 2.992314
v 25.968811 7.120693 2.992316
v 25.968811 2.275212 2.992314
v 21.204178 2.368869 8.247947
v 21.204178 7.120693 8.247947
v 21.204178 0.355330 8.247948
v 26.181986 0.000000 3.236301
v 26.210808 7.120693 3.256269
v 21.204178 0.000000 8.247948
v 17.457695 2.275212 7.992314
v -3.533899 2.275211 7.992314
v 17.458879 2.275212 7.738577
v -3.533899 2.275211 7.738577
v -7.922335 2.368868 7.892314
v 17.457695 2.368869 7.892314
v -3.534136 2.368869 7.892314
v 20.953835 2.368869 7.892314
v 17.457695 2.275212 7.892314
v -3.533899 2.275211 7.892314
v 20.953835 2.275212 7.892314
v -7.922335 2.368869 -7.898815
v -7.922335 2.275211 7.892314
v 9.941955 2.368869 -7.898815
v 18.079033 2.368869 -7.898815
v -7.922335 2.275212 -7.898815
v 18.079033 2.275212 -7.898815
v 9.941955 2.275212 -7.898815
v 18.079033 2.368869 -19.889942
v 25.868811 2.368868 -19.889942
v 18.079033 2.275212 -19.889942
v 25.868811 2.368869 2.992314
v 25.868811 2.275211 -19.889942
v 25.868811 2.275212 2.992314
v 3.612149 2.368869 7.992314
v 10.265994 2.368869 7.992314
v 3.612149 7.120693 7.992314
v 10.265994 7.120693 7.992314
v 10.159488 2.468869 7.992314
v 3.708021 2.468869 7.992314
v 3.708021 7.020693 7.992314
v 10.159488 7.020693 7.992314
v 10.359509 2.468869 7.992314
v 16.810959 2.468869 7.992314
v 16.810959 7.020693 7.992314
v 10.359509 7.020693 7.992314
v 3.508013 2.468869 7.992314
v -2.943464 2.468869 7.992314
v -2.943464 7.020693 7.992314
v 3.508013 7.020693 7.992314
v 10.159488 2.468869 8.224698
v 3.708021 2.468869 8.224698
v 3.708021 7.020693 8.224697
v 10.159488 7.020693 8.224697
v 10.359509 2.468869 8.224698
v 16.810959 2.468869 8.224698
v 16.810959 7.020693 8.224697
v 10.359509 7.020693 8.224697
v 3.508013 2.468869 8.224698
v -2.943464 2.468869 8.224698
v -2.943464 7.020693 8.224697
v 3.508013 7.020693 8.224697
v 10.265994 2.275212 7.738577
v 10.265994 0.000000 7.984196
v 10.265994 2.368869 7.738577
v 10.265994 2.010691 7.738577
v 10.265994 2.010691 7.992314
v 3.612149 9.456206 -7.998816
v 3.612149 2.368869 -7.998816
v 3.612149 0.000000 -7.998816
v 3.612149 2.275212 -7.998816
v 3.612149 0.000000 7.979859
v 3.612149 2.275212 -7.898814
v 3.612149 2.368869 -7.898814
v 3.612149 2.275211 7.738577
v 3.612149 2.010691 7.738577
v 3.612149 2.368869 7.738577
v 3.612149 2.010691 7.992314
v 9.935278 9.456206 7.992315
v 3.612149 9.456206 7.992315
v 26.181986 0.000000 8.247948
vt 0.670326 0.839211
vt 0.755218 0.489576
vt 0.755218 0.839211
vt 0.487745 0.962611
vt 0.490817 0.962630
vt 0.490825 0.966792
vt 0.442414 0.292781
vt 0.445520 0.294459
vt 0.442457 0.294498
vt 0.810043 0.489165
vt 0.936670 0.732462
vt 0.810043 0.732462
vt 0.628602 0.839211
vt 0.628602 0.489576
vt 0.525175 0.441286
vt 0.537280 0.368729
vt 0.533945 0.441264
vt 0.224601 0.017046
vt 0.337574 0.124876
vt 0.224601 0.124876
vt 0.227918 0.965326
vt 0.103616 0.966803
vt 0.101451 0.964949
vt 0.761681 0.489165
vt 0.797612 0.838891
vt 0.756960 0.838798
vt 0.731572 0.113532
vt 0.488579 0.072881
vt 0.731877 0.072881
vt 0.485852 0.922617
vt 0.604733 0.953209
vt 0.485852 0.953209
vt 0.334541 0.922617
vt 0.221449 0.957233
vt 0.221449 0.922617
vt 0.478136 0.922617
vt 0.334541 0.957233
vt 0.889458 0.440400
vt 0.892793 0.367865
vt 0.899037 0.440377
vt 0.445240 0.441480
vt 0.677243 0.386696
vt 0.717895 0.386784
vt 0.712966 0.455073
vt 0.485859 0.978256
vt 0.602607 0.979992
vt 0.485852 0.979992
vt 0.101438 0.982947
vt 0.220319 0.979121
vt 0.229927 0.982985
vt 0.229929 0.979124
vt 0.229928 0.980646
vt 0.485852 0.983944
vt 0.602607 0.987736
vt 0.485852 0.987736
vt 0.227905 0.970868
vt 0.352331 0.969219
vt 0.352322 0.971062
vt 0.628602 0.946946
vt 0.670326 0.946946
vt 0.961238 0.441655
vt 0.966263 0.470946
vt 0.959641 0.476385
vt 0.797538 0.844139
vt 0.670326 0.844658
vt 0.971011 0.367675
vt 0.961303 0.440225
vt 0.964639 0.367690
vt 0.676718 0.839439
vt 0.487702 0.960976
vt 0.442498 0.298655
vt 0.823650 0.203452
vt 0.829874 0.196755
vt 0.828748 0.206884
vt 0.717692 0.455073
vt 0.602607 0.983944
vt 0.447291 0.298751
vt 0.967676 0.440210
vt 0.092049 0.967895
vt 0.093723 0.969417
vt 0.092049 0.969417
vt 0.614102 0.182777
vt 0.535702 0.184299
vt 0.533915 0.182778
vt 0.761228 0.183686
vt 0.616924 0.180728
vt 0.762156 0.180728
vt 0.966013 0.476370
vt 0.535702 0.185724
vt 0.614102 0.184299
vt 0.614106 0.185724
vt 0.614106 0.187246
vt 0.533915 0.187246
vt 0.478136 0.967676
vt 0.352331 0.967360
vt 0.475973 0.971371
vt 0.475985 0.965835
vt 0.352335 0.965517
vt 0.660219 0.204719
vt 0.823290 0.200222
vt 0.657289 0.208196
vt 0.660181 0.200233
vt 0.657211 0.196755
vt 0.619434 0.186625
vt 0.763739 0.189583
vt 0.618506 0.189583
vt 0.761248 0.186592
vt 0.227917 0.969019
vt 0.227916 0.967172
vt 0.529777 0.200268
vt 0.653839 0.202811
vt 0.528719 0.202811
vt 0.652715 0.195161
vt 0.529761 0.197704
vt 0.527596 0.195161
vt 0.745842 0.165379
vt 0.928281 0.124729
vt 0.928281 0.165379
vt 0.654880 0.197704
vt 0.654895 0.200268
vt 0.620886 0.838829
vt 0.531286 0.914901
vt 0.478136 0.671604
vt 0.620886 0.489165
vt 0.092049 0.966470
vt 0.029585 0.964949
vt 0.092049 0.964949
vt 0.478136 0.489165
vt 0.966278 0.332039
vt 0.898786 0.445844
vt 0.898972 0.441806
vt 0.029585 0.966470
vt 0.029585 0.967895
vt 0.029585 0.969417
vt 0.736802 0.113415
vt 0.745600 0.113415
vt 0.736802 0.114936
vt 0.486021 0.966930
vt 0.019761 0.478593
vt 0.305245 0.382288
vt 0.305245 0.478593
vt 0.019538 0.214747
vt 0.305245 0.260007
vt 0.519486 0.138447
vt 0.109228 0.138582
vt 0.332361 0.656113
vt 0.458988 0.473674
vt 0.458988 0.656113
vt 0.104512 0.135203
vt 0.014971 0.210939
vt 0.811693 0.937240
vt 0.900480 0.932368
vt 0.905430 0.935633
vt 0.816750 0.746170
vt 0.811679 0.821634
vt 0.812549 0.741715
vt 0.901988 0.837833
vt 0.905911 0.832969
vt 0.801006 0.317591
vt 0.681365 0.319169
vt 0.683038 0.317802
vt 0.683244 0.237733
vt 0.803678 0.236195
vt 0.801611 0.237857
vt 0.681549 0.236195
vt 0.932449 0.740178
vt 0.930077 0.821722
vt 0.930308 0.741853
vt 0.810102 0.822881
vt 0.907189 0.937157
vt 0.810043 0.938662
vt 0.812124 0.833571
vt 0.907916 0.831291
vt 0.810043 0.831809
vt 0.817190 0.836888
vt 0.688679 0.314714
vt 0.815470 0.932521
vt 0.686945 0.242034
vt 0.797250 0.313190
vt 0.926364 0.817248
vt 0.795796 0.241065
vt 0.810917 0.740178
vt 0.817258 0.818621
vt 0.810043 0.823010
vt 0.924430 0.745086
vt 0.317716 0.298614
vt 0.317721 0.294708
vt 0.019683 0.377358
vt 0.769292 0.476848
vt 0.442418 0.302401
vt 0.317715 0.302361
vt 0.019896 0.655606
vt 0.305245 0.655606
vt 0.103619 0.968647
vt 0.614799 0.962883
vt 0.614799 0.966792
vt 0.101438 0.970488
vt 0.614799 0.970541
vt 0.490825 0.970541
vt 0.614796 0.961042
vt 0.013580 0.957233
vt 0.013580 0.922617
vt 0.611385 0.124727
vt 0.739049 0.155320
vt 0.531180 0.155320
vt 0.337694 0.017046
vt 0.481289 0.124876
vt 0.016733 0.124876
vt 0.016733 0.017046
vt 0.534685 0.174278
vt 0.653564 0.170418
vt 0.653564 0.174278
vt 0.864479 0.117275
vt 0.736802 0.117275
vt 0.334422 0.671604
vt 0.221449 0.914901
vt 0.221449 0.671604
vt 0.013580 0.914901
vt 0.013580 0.671604
vt 0.657424 0.332790
vt 0.450215 0.333294
vt 0.655785 0.368441
vt 0.770038 0.332517
vt 0.774289 0.368153
vt 0.334422 0.914901
vt 0.014971 0.135203
vt 0.673649 0.211993
vt 0.530855 0.319782
vt 0.530899 0.211951
vt 0.476052 0.982605
vt 0.357243 0.984379
vt 0.358740 0.982613
vt 0.476043 0.980861
vt 0.358731 0.980870
vt 0.356657 0.979087
vt 0.771352 0.989326
vt 0.628602 0.954710
vt 0.771352 0.954710
vt 0.445555 0.292829
vt 0.936670 0.489165
vt 0.802328 0.489563
vt 0.488579 0.113532
vt 0.604733 0.922617
vt 0.478136 0.957233
vt 0.602614 0.978256
vt 0.101440 0.979087
vt 0.676718 0.946995
vt 0.490818 0.960925
vt 0.447409 0.294497
vt 0.093723 0.967895
vt 0.619414 0.183718
vt 0.478136 0.969542
vt 0.745842 0.124729
vt 0.485852 0.962666
vt 0.519486 0.260007
vt 0.332361 0.473674
vt 0.803069 0.319410
vt 0.932174 0.823575
vt 0.317715 0.292854
vt 0.770703 0.446155
vt 0.739049 0.124727
vt 0.481289 0.017046
vt 0.534685 0.170418
vt 0.864479 0.113414
vt 0.673605 0.319824
vt 0.478136 0.984379
vt 0.477565 0.979087
vt 0.628602 0.989326
vn -1.0000 0.0000 0.0000
vn -1.0000 -0.0025 0.0000
vn 0.9999 0.0126 0.0077
vn 1.0000 0.0000 0.0000
vn 0.0000 0.0000 -1.0000
vn 0.0000 0.0000 1.0000
vn 0.0000 -1.0000 0.0000
vn -1.0000 0.0039 -0.0000
vn 0.0007 0.0062 -1.0000
vn 0.0005 0.0088 -1.0000
vn 0.0000 1.0000 -0.0000
vn -0.7060 0.0000 -0.7082
vn 0.7145 0.0000 -0.6997
vn -0.7531 0.0000 0.6579
vn -0.7371 0.0000 0.6758
vn -0.7653 -0.0027 0.6437
vn 0.9999 0.0127 0.0077
vn 0.9998 0.0067 0.0179
vn 0.0008 0.0013 -1.0000
vn 0.0006 0.0085 -1.0000
vn -1.0000 0.0000 -0.0004
vn 0.0000 0.0040 -1.0000
vn -0.7474 0.0012 0.6643
vn 0.0000 0.0062 -1.0000
s off
f 45/1/1 12/2/1 44/3/1
f 62/4/2 56/5/2 38/6/2
f 35/7/3 61/8/3 55/9/3
f 13/10/4 2/11/4 11/12/4
f 43/13/1 4/14/1 45/1/1
f 34/15/5 21/16/5 19/17/5
f 111/18/6 22/19/6 110/20/6
f 113/21/7 68/22/7 29/23/7
f 32/24/8 42/25/8 46/26/8
f 1/27/4 29/28/4 28/29/4
f 120/30/9 106/31/9 114/32/9
f 24/33/6 113/34/6 112/35/6
f 7/36/6 33/37/6 24/33/6
f 18/38/5 20/39/5 25/40/5
f 11/41/5 21/16/5 34/15/5
f 1/42/10 28/43/10 27/44/10
f 119/45/5 105/46/5 117/47/5
f 107/48/11 18/49/11 35/50/11
f 18/49/11 25/51/11 58/52/11
f 118/53/7 109/54/7 120/55/7
f 111/56/11 66/57/11 23/58/11
f 17/59/12 45/1/12 40/60/12
f 41/61/13 49/62/13 16/63/13
f 50/64/14 44/3/14 46/26/14
f 44/3/15 51/65/15 45/1/15
f 48/66/13 39/67/13 40/68/13
f 51/69/7 40/60/7 45/1/7
f 42/25/16 50/64/16 46/26/16
f 59/70/2 56/5/2 62/4/2
f 37/71/17 55/9/17 61/8/17
f 74/72/6 46/73/6 44/74/6
f 28/43/5 54/75/5 27/44/5
f 117/47/5 108/76/5 118/53/5
f 61/8/18 26/77/18 37/71/18
f 39/67/13 47/78/13 41/61/13
f 63/79/4 39/80/4 41/81/4
f 34/82/11 57/83/11 11/84/11
f 57/85/11 13/86/11 11/87/11
f 16/63/13 49/62/13 52/88/13
f 65/89/5 59/90/5 62/91/5
f 65/89/7 54/92/7 28/93/7
f 69/94/6 66/57/6 70/95/6
f 66/57/11 14/96/11 23/58/11
f 30/97/7 70/95/7 33/98/7
f 72/99/1 76/100/1 74/72/1
f 72/99/11 44/74/11 12/101/11
f 46/73/7 75/102/7 32/103/7
f 68/104/7 28/105/7 29/106/7
f 68/104/4 57/85/4 65/107/4
f 70/95/6 116/108/6 115/109/6
f 73/110/7 30/111/7 31/112/7
f 14/113/11 71/114/11 15/115/11
f 9/116/4 30/117/4 7/118/4
f 73/110/4 67/119/4 69/120/4
f 43/121/7 17/122/7 8/123/7
f 43/121/7 8/123/7 4/124/7
f 60/125/11 25/126/11 39/127/11
f 10/128/7 4/124/7 8/123/7
f 20/39/5 17/129/5 40/68/5
f 25/40/5 40/68/5 39/67/5
f 16/63/5 26/130/5 41/61/5
f 26/130/5 53/131/5 41/61/5
f 58/132/5 63/79/5 61/133/5
f 61/133/7 41/81/7 53/134/7
f 34/135/11 19/136/11 59/137/11
f 27/138/2 62/4/2 38/6/2
f 114/139/11 24/140/11 112/141/11
f 16/142/11 7/143/11 24/140/11
f 3/144/11 7/143/11 42/145/11
f 14/146/4 10/147/4 8/148/4
f 50/149/11 16/142/11 52/150/11
f 91/151/4 102/152/4 90/153/4
f 100/154/4 85/155/4 88/156/4
f 90/153/11 101/157/11 89/158/11
f 81/159/5 77/160/5 82/161/5
f 77/160/5 83/162/5 82/161/5
f 80/163/5 81/159/5 84/164/5
f 79/165/5 84/164/5 83/162/5
f 20/166/5 86/167/5 87/168/5
f 78/169/5 88/156/5 85/155/5
f 89/158/5 19/170/5 90/153/5
f 90/153/5 21/171/5 91/151/5
f 92/172/5 77/173/5 89/158/5
f 92/172/5 21/171/5 79/174/5
f 89/158/1 104/175/1 92/172/1
f 94/176/11 81/159/11 82/161/11
f 92/172/7 103/177/7 91/151/7
f 95/178/4 82/161/4 83/162/4
f 93/179/1 84/164/1 81/159/1
f 98/180/1 87/168/1 86/167/1
f 96/181/7 83/162/7 84/164/7
f 80/182/5 87/168/5 88/156/5
f 97/183/11 86/167/11 85/155/11
f 86/167/5 78/184/5 85/155/5
f 99/185/7 88/156/7 87/168/7
f 108/186/5 55/9/5 37/71/5
f 105/187/5 35/7/5 55/9/5
f 24/140/11 106/188/11 16/142/11
f 106/189/19 26/130/19 16/63/19
f 108/186/7 26/190/7 109/191/7
f 1/192/11 112/141/11 5/193/11
f 115/109/6 64/194/6 68/22/6
f 38/6/5 117/195/5 118/196/5
f 64/194/11 111/56/11 13/197/11
f 38/6/7 120/198/7 27/199/7
f 56/5/5 119/200/5 117/195/5
f 112/35/6 29/201/6 5/202/6
f 27/203/20 114/204/20 1/205/20
f 23/206/6 8/207/6 22/19/6
f 70/95/7 113/21/7 33/98/7
f 111/18/6 6/208/6 13/209/6
f 119/210/11 78/211/11 107/212/11
f 19/136/11 119/213/11 36/214/11
f 22/215/7 122/216/7 110/217/7
f 110/217/7 2/218/7 6/219/7
f 122/220/5 21/16/5 2/221/5
f 79/222/5 121/223/5 80/224/5
f 20/39/5 121/223/5 17/129/5
f 8/123/7 121/225/7 22/215/7
f 50/149/11 52/150/11 123/226/11
f 12/227/6 10/228/6 15/229/6
f 72/230/11 15/231/11 71/232/11
f 75/233/6 71/232/6 73/234/6
f 31/235/7 75/233/7 73/234/7
f 32/236/6 9/237/6 3/238/6
f 58/52/11 35/50/11 18/49/11
f 36/214/11 59/137/11 19/136/11
f 45/1/1 4/14/1 12/2/1
f 35/7/4 58/239/4 61/8/4
f 13/10/4 6/240/4 2/11/4
f 111/18/6 23/206/6 22/19/6
f 113/21/7 115/109/7 68/22/7
f 32/24/21 3/241/21 42/25/21
f 1/27/4 5/242/4 29/28/4
f 120/30/22 109/243/22 106/31/22
f 24/33/6 33/37/6 113/34/6
f 7/36/6 30/244/6 33/37/6
f 11/41/5 2/221/5 21/16/5
f 119/45/5 107/245/5 105/46/5
f 107/48/11 78/246/11 18/49/11
f 118/53/7 108/76/7 109/54/7
f 111/56/11 116/108/11 66/57/11
f 17/59/12 43/13/12 45/1/12
f 41/61/13 47/78/13 49/62/13
f 50/64/23 51/65/23 44/3/23
f 48/66/13 47/78/13 39/67/13
f 51/69/7 48/247/7 40/60/7
f 59/70/2 36/248/2 56/5/2
f 74/72/6 76/100/6 46/73/6
f 117/47/5 105/46/5 108/76/5
f 61/8/4 53/249/4 26/77/4
f 63/79/4 60/250/4 39/80/4
f 34/82/11 59/90/11 57/83/11
f 57/85/11 64/251/11 13/86/11
f 65/89/5 57/83/5 59/90/5
f 65/89/7 62/91/7 54/92/7
f 69/94/6 67/252/6 66/57/6
f 66/57/11 67/252/11 14/96/11
f 30/97/7 69/94/7 70/95/7
f 72/99/1 75/102/1 76/100/1
f 72/99/11 74/72/11 44/74/11
f 46/73/7 76/100/7 75/102/7
f 68/104/7 65/107/7 28/105/7
f 68/104/4 64/251/4 57/85/4
f 70/95/6 66/57/6 116/108/6
f 73/110/7 69/120/7 30/111/7
f 14/113/11 67/119/11 71/114/11
f 9/116/4 31/253/4 30/117/4
f 73/110/4 71/114/4 67/119/4
f 60/125/11 58/132/11 25/126/11
f 25/40/5 20/39/5 40/68/5
f 58/132/5 60/125/5 63/79/5
f 61/133/7 63/79/7 41/81/7
f 27/138/2 54/254/2 62/4/2
f 114/139/11 106/188/11 24/140/11
f 16/142/11 42/145/11 7/143/11
f 3/144/11 9/255/11 7/143/11
f 14/146/4 15/256/4 10/147/4
f 50/149/11 42/145/11 16/142/11
f 91/151/4 103/177/4 102/152/4
f 100/154/4 97/183/4 85/155/4
f 90/153/11 102/152/11 101/157/11
f 81/159/5 78/257/5 77/160/5
f 77/160/5 79/165/5 83/162/5
f 80/163/5 78/257/5 81/159/5
f 79/165/5 80/163/5 84/164/5
f 20/166/5 18/258/5 86/167/5
f 78/169/5 80/182/5 88/156/5
f 89/158/5 77/173/5 19/170/5
f 90/153/5 19/170/5 21/171/5
f 92/172/5 79/174/5 77/173/5
f 92/172/5 91/151/5 21/171/5
f 89/158/1 101/157/1 104/175/1
f 94/176/11 93/179/11 81/159/11
f 92/172/7 104/175/7 103/177/7
f 95/178/4 94/176/4 82/161/4
f 93/179/1 96/181/1 84/164/1
f 98/180/1 99/185/1 87/168/1
f 96/181/7 95/178/7 83/162/7
f 80/182/5 20/166/5 87/168/5
f 97/183/11 98/180/11 86/167/11
f 86/167/5 18/258/5 78/184/5
f 99/185/7 100/154/7 88/156/7
f 108/186/5 105/187/5 55/9/5
f 105/187/5 107/259/5 35/7/5
f 106/189/22 109/260/22 26/130/22
f 108/186/7 37/71/7 26/190/7
f 1/192/11 114/139/11 112/141/11
f 115/109/6 116/108/6 64/194/6
f 38/6/5 56/5/5 117/195/5
f 64/194/11 116/108/11 111/56/11
f 38/6/7 118/196/7 120/198/7
f 56/5/5 36/248/5 119/200/5
f 112/35/6 113/34/6 29/201/6
f 27/203/24 120/261/24 114/204/24
f 23/206/6 14/262/6 8/207/6
f 70/95/7 115/109/7 113/21/7
f 111/18/6 110/20/6 6/208/6
f 119/210/11 77/263/11 78/211/11
f 19/136/11 77/264/11 119/213/11
f 22/215/7 121/225/7 122/216/7
f 110/217/7 122/216/7 2/218/7
f 122/220/5 79/222/5 21/16/5
f 79/222/5 122/220/5 121/223/5
f 20/39/5 80/224/5 121/223/5
f 8/123/7 17/122/7 121/225/7
f 12/227/6 4/265/6 10/228/6
f 72/230/11 12/266/11 15/231/11
f 75/233/6 72/230/6 71/232/6
f 31/235/7 32/267/7 75/233/7
f 32/236/6 31/268/6 9/237/6
