# Blender v2.79 (sub 0) OBJ File: 'Bar.blend'
# www.blender.org
o picture_frame.000_Cube.009
v -0.024639 0.999671 0.999671
v -0.024639 0.999671 -1.000329
v -0.024639 -1.000329 -1.000329
v -0.024639 -1.000329 0.999671
v -0.013617 0.864215 -0.863555
v -0.013617 -0.863555 -0.863555
v -0.013617 -0.863555 0.864216
v 0.049368 -0.975209 0.975869
v 0.049368 -0.975209 -0.975208
v 0.049368 0.975869 0.975869
v 0.049368 0.975869 -0.975208
v 0.049368 1.000330 1.000330
v 0.049368 1.000330 -0.999670
v 0.049368 -0.999670 -0.999670
v 0.049368 -0.999670 1.000330
v -0.013617 0.901952 0.901952
v -0.013617 0.901952 -0.901292
v -0.013617 -0.901292 -0.901292
v -0.013617 -0.901292 0.901952
v -0.013617 0.864215 0.864216
v -0.049368 0.864215 0.864216
v -0.049368 0.864215 -0.863555
v -0.049368 -0.863555 -0.863555
v -0.049368 -0.863555 0.864216
vt 0.198069 0.519187
vt 0.739083 0.539473
vt 0.739261 0.519187
vt 0.512889 0.400117
vt 0.980417 0.390318
vt 0.512889 0.390318
vt 0.198068 0.625543
vt 0.739083 0.645830
vt 0.739261 0.625543
vt 0.198068 0.592651
vt 0.739083 0.572365
vt 0.197890 0.572365
vt 0.198069 0.699008
vt 0.739083 0.678722
vt 0.197890 0.678722
vt 0.512889 0.357425
vt 0.980417 0.347626
vt 0.512889 0.347626
vt 0.732463 0.879009
vt 0.197890 0.872304
vt 0.204509 0.879009
vt 0.197890 0.979815
vt 0.732463 0.973110
vt 0.204509 0.973110
vt 0.739083 0.802102
vt 0.204509 0.808807
vt 0.732463 0.808807
vt 0.739083 0.731900
vt 0.204509 0.738605
vt 0.732463 0.738605
vt 0.224511 0.899269
vt 0.712462 0.899269
vt 0.224510 0.952849
vt 0.712462 0.952849
vt 0.224511 0.829067
vt 0.712462 0.829067
vt 0.224510 0.758866
vt 0.712462 0.758866
vt 0.702250 0.909613
vt 0.234722 0.909613
vt 0.702250 0.942505
vt 0.234722 0.942505
vt 0.234722 0.839411
vt 0.702251 0.839411
vt 0.234722 0.769210
vt 0.702250 0.769210
vt 0.512889 0.485501
vt 0.980417 0.475701
vt 0.512889 0.475701
vt 0.512889 0.442809
vt 0.980417 0.433009
vt 0.512889 0.433009
vt 0.197890 0.539473
vt 0.980417 0.400117
vt 0.197890 0.645829
vt 0.739261 0.592651
vt 0.739261 0.699008
vt 0.980417 0.357425
vt 0.739083 0.872304
vt 0.739083 0.979815
vt 0.197890 0.802102
vt 0.197890 0.731900
vt 0.980417 0.485501
vt 0.980417 0.442809
vt 0.490033 0.016236
vt 0.016446 0.483764
vt 0.490033 0.483764
vt 0.016446 0.016236
vn 0.0089 0.0000 -1.0000
vn 0.0000 0.0000 1.0000
vn -0.0089 1.0000 0.0000
vn -0.0089 0.0000 1.0000
vn 0.0089 -1.0000 0.0000
vn 0.0000 1.0000 0.0000
vn 1.0000 0.0000 0.0000
vn 0.7611 -0.6486 0.0000
vn 0.7611 0.0000 0.6486
vn 0.7611 0.6486 0.0000
vn 0.7611 0.0000 -0.6486
vn 0.0000 0.0000 -1.0000
vn 0.0000 -1.0000 0.0000
s off
f 2/1/1 14/2/1 3/3/1
f 22/4/2 6/5/2 5/6/2
f 1/7/3 13/8/3 2/9/3
f 15/10/4 1/11/4 4/12/4
f 14/13/5 4/14/5 3/15/5
f 23/16/6 7/17/6 6/18/6
f 11/19/7 12/20/7 10/21/7
f 14/22/7 11/23/7 9/24/7
f 15/25/7 9/26/7 8/27/7
f 12/28/7 8/29/7 10/30/7
f 11/19/8 16/31/8 17/32/8
f 18/33/9 11/23/9 17/34/9
f 8/27/10 18/35/10 19/36/10
f 10/30/11 19/37/11 16/38/11
f 5/39/7 16/31/7 20/40/7
f 18/33/7 5/41/7 6/42/7
f 19/36/7 6/43/7 7/44/7
f 16/38/7 7/45/7 20/46/7
f 24/47/12 20/48/12 7/49/12
f 21/50/13 5/51/13 20/52/13
f 2/1/1 13/53/1 14/2/1
f 22/4/2 23/54/2 6/5/2
f 1/7/3 12/55/3 13/8/3
f 15/10/4 12/56/4 1/11/4
f 14/13/5 15/57/5 4/14/5
f 23/16/6 24/58/6 7/17/6
f 11/19/7 13/59/7 12/20/7
f 14/22/7 13/60/7 11/23/7
f 15/25/7 14/61/7 9/26/7
f 12/28/7 15/62/7 8/29/7
f 11/19/8 10/21/8 16/31/8
f 18/33/9 9/24/9 11/23/9
f 8/27/10 9/26/10 18/35/10
f 10/30/11 8/29/11 19/37/11
f 5/39/7 17/32/7 16/31/7
f 18/33/7 17/34/7 5/41/7
f 19/36/7 18/35/7 6/43/7
f 16/38/7 19/37/7 7/45/7
f 24/47/12 21/63/12 20/48/12
f 21/50/13 22/64/13 5/51/13
f 24/65/7 22/66/7 21/67/7
f 24/65/7 23/68/7 22/66/7
