# Blender v2.79 (sub 0) OBJ File: 'Bar.blend'
# www.blender.org
o shotglass_Cylinder.001
v 0.050666 0.000000 0.087756
v 0.062332 -0.249328 0.107962
v 0.101332 0.000000 0.000000
v 0.124664 -0.249328 0.000000
v 0.050666 -0.000000 -0.087756
v 0.062332 -0.249328 -0.107962
v -0.050666 -0.000000 -0.087756
v -0.062332 -0.249328 -0.107962
v -0.101332 -0.000000 -0.000000
v -0.124664 -0.249328 0.000000
v -0.050666 0.000000 0.087756
v -0.062332 -0.249328 0.107962
v 0.054950 -0.249328 0.095177
v 0.109901 -0.249328 0.000000
v 0.054950 -0.249328 -0.095177
v -0.054950 -0.249328 -0.095177
v -0.109901 -0.249328 0.000000
v -0.054950 -0.249328 0.095177
v 0.041587 -0.035186 0.072031
v 0.083174 -0.035186 0.000000
v 0.041587 -0.035186 -0.072031
v -0.041587 -0.035186 -0.072031
v -0.083174 -0.035186 -0.000000
v -0.041587 -0.035186 0.072031
vt 0.977072 0.271785
vt 0.965821 0.228805
vt 0.994217 0.257981
vt 0.958715 0.283934
vt 0.951884 0.240026
vt 0.921189 0.258345
vt 0.936964 0.249901
vt 0.919019 0.302859
vt 0.939308 0.294322
vt 0.887630 0.270657
vt 0.904696 0.265283
vt 0.890173 0.015440
vt 0.891168 0.050884
vt 0.872889 0.044367
vt 0.986993 0.072452
vt 0.968306 0.097174
vt 0.956239 0.068629
vt 0.981517 0.184767
vt 0.976349 0.167534
vt 0.983751 0.185044
vt 0.958361 0.167263
vt 0.974992 0.169330
vt 0.948255 0.180632
vt 0.957484 0.165189
vt 0.954780 0.196069
vt 0.946021 0.180354
vt 0.972288 0.200210
vt 0.971411 0.198136
vt 0.929431 0.056926
vt 0.947645 0.024514
vt 0.948828 0.056357
vt 0.956354 0.127225
vt 0.961627 0.120249
vt 0.973710 0.129383
vt 0.968006 0.053396
vt 0.962159 0.022273
vt 0.918344 0.023556
vt 0.910112 0.055092
vt 0.976285 0.018254
vt 0.986671 0.048086
vt 0.932964 0.024944
vt 0.970305 0.121328
vt 0.959758 0.135280
vt 0.968437 0.136359
vt 0.954032 0.086385
vt 0.984786 0.090208
vt 0.972720 0.061662
vt 0.898022 0.309470
vt 0.870137 0.274419
vt 0.904007 0.020372
vt 0.953422 0.197865
vt 0.876502 0.314098
vn 0.8183 -0.5748 0.0000
vn 0.3822 0.6448 0.6619
vn 0.4092 -0.5748 0.7087
vn 0.4092 -0.5748 -0.7087
vn 0.7643 0.6448 0.0000
vn -0.3822 0.6448 -0.6619
vn 0.3822 0.6448 -0.6619
vn -0.8183 -0.5748 0.0000
vn -0.4092 -0.5748 -0.7087
vn -0.3822 0.6448 0.6619
vn -0.7643 0.6448 0.0000
vn -0.3773 -0.6562 -0.6534
vn -0.4989 -0.8666 0.0000
vn -0.2495 -0.8666 -0.4321
vn 0.2495 -0.8666 0.4321
vn -0.2495 -0.8666 0.4321
vn 0.4989 -0.8666 0.0000
vn 0.2495 -0.8666 -0.4321
vn 0.7545 -0.6562 0.0000
vn 0.3773 -0.6562 0.6534
vn -0.7545 -0.6562 0.0000
vn 0.3773 -0.6562 -0.6534
vn -0.3773 -0.6562 0.6534
vn -0.4092 -0.5748 0.7087
s 1
f 4/1/1 1/2/2 2/3/3
f 6/4/4 3/5/5 4/1/1
f 6/4/4 7/6/6 5/7/7
f 10/8/8 7/6/6 8/9/9
f 10/8/8 11/10/10 9/11/11
f 19/12/12 14/13/13 13/14/14
f 1/15/2 5/16/7 9/17/11
f 14/18/13 6/19/4 4/20/1
f 16/21/15 6/19/4 15/22/16
f 17/23/17 8/24/9 16/21/15
f 18/25/18 10/26/8 17/23/17
f 2/27/3 18/25/18 13/28/14
f 16/29/15 23/30/19 17/31/17
f 23/32/19 22/33/20 20/34/21
f 18/35/18 23/30/19 24/36/22
f 14/13/13 21/37/23 15/38/16
f 18/35/18 19/39/12 13/40/14
f 15/38/16 22/41/20 16/29/15
f 22/33/20 21/42/23 20/34/21
f 24/43/22 23/32/19 20/34/21
f 20/34/21 19/44/12 24/43/22
f 5/16/7 7/45/6 9/17/11
f 1/15/2 3/46/5 5/16/7
f 9/17/11 11/47/10 1/15/2
f 12/48/24 1/49/2 11/10/10
f 4/20/1 13/28/14 14/18/13
f 4/1/1 3/5/5 1/2/2
f 6/4/4 5/7/7 3/5/5
f 6/4/4 8/9/9 7/6/6
f 10/8/8 9/11/11 7/6/6
f 10/8/8 12/48/24 11/10/10
f 19/12/12 20/50/21 14/13/13
f 14/18/13 15/22/16 6/19/4
f 16/21/15 8/24/9 6/19/4
f 17/23/17 10/26/8 8/24/9
f 18/25/18 12/51/24 10/26/8
f 2/27/3 12/51/24 18/25/18
f 16/29/15 22/41/20 23/30/19
f 18/35/18 17/31/17 23/30/19
f 14/13/13 20/50/21 21/37/23
f 18/35/18 24/36/22 19/39/12
f 15/38/16 21/37/23 22/41/20
f 12/48/24 2/52/3 1/49/2
f 4/20/1 2/27/3 13/28/14
