# Blender v2.79 (sub 0) OBJ File: 'Bar.blend'
# www.blender.org
o trash_can_Plane.017
v -0.634941 -0.012410 0.634941
v 0.634941 -0.012410 0.634941
v -0.634941 -0.012410 -0.634941
v 0.634941 -0.012410 -0.634941
v -0.341588 2.446880 -0.341588
v -0.341588 2.446880 0.341588
v 0.341588 2.446880 0.341588
v 0.341588 2.446880 -0.341588
v -0.634941 2.291197 -0.634941
v 0.634941 2.291197 -0.634941
v 0.634941 2.291197 0.634941
v -0.634941 2.291197 0.634941
v -0.658496 2.382603 -0.658496
v -0.658496 2.382603 0.658496
v 0.658496 2.382603 0.658496
v 0.658496 2.382603 -0.658496
v -0.658496 2.291197 -0.658496
v 0.658496 2.291197 0.658496
v 0.658496 2.291197 -0.658496
v -0.658496 2.291197 0.658496
v -0.634941 2.394773 -0.634941
v -0.634941 2.394773 0.634941
v 0.634941 2.394773 0.634941
v 0.634941 2.394773 -0.634941
v -0.341588 2.105174 -0.341588
v -0.341588 2.105174 0.341588
v 0.341588 2.105174 0.341588
v 0.341588 2.105174 -0.341588
v -0.341588 2.332407 -0.341588
v 0.341588 2.332407 -0.341588
v 0.341588 2.332407 0.341588
v -0.341588 2.332407 0.341588
v -0.295176 2.446880 -0.295176
v -0.295176 2.446880 0.295176
v 0.295176 2.446880 0.295176
v 0.295176 2.446880 -0.295176
v 0.295176 2.332407 -0.295176
v -0.295176 2.332407 0.295176
v -0.295176 2.332407 -0.295176
v 0.295176 2.332407 0.295176
vt 0.266388 0.740336
vt 0.532776 1.000000
vt 0.266388 1.000000
vt 0.823236 0.324887
vt 0.823937 0.326993
vt 0.823236 0.327922
vt 0.532776 0.471039
vt 0.799164 0.000000
vt 0.799164 0.471039
vt 0.000000 0.471039
vt 0.266388 0.000000
vt 0.266388 0.471039
vt 0.000000 0.942078
vt 0.266388 0.471039
vt 0.266388 0.942078
vt 0.532776 0.000000
vt 0.266388 0.471039
vt 0.266388 0.000000
vt 0.825379 0.326996
vt 0.824086 0.325557
vt 0.825529 0.325560
vt 0.826229 0.327667
vt 0.826229 0.324631
vt 0.819401 0.740336
vt 0.829137 0.870541
vt 0.819401 0.880031
vt 0.952977 0.870541
vt 0.962713 0.880031
vt 0.962713 0.740336
vt 0.829137 0.749827
vt 0.952977 0.749826
vt 0.532776 0.740336
vt 0.532776 0.000000
vt 0.000000 0.000000
vt 0.000000 0.471039
vt 0.532776 0.471039
vt 0.547600 0.735520
vt 0.542659 0.471039
vt 0.547600 0.475856
vt 0.813988 0.475856
vt 0.818929 0.740336
vt 0.813988 0.735520
vt 0.537717 0.735520
vt 0.542659 0.471039
vt 0.542659 0.740336
vt 0.537717 0.475856
vt 0.266388 0.471039
vt 0.980826 0.000000
vt 1.000000 0.269297
vt 0.980826 0.269297
vt 0.962242 0.471039
vt 0.981416 0.740336
vt 0.962242 0.740336
vt 0.961651 0.269297
vt 0.942477 0.000000
vt 0.961651 0.000000
vt 0.980826 0.269297
vt 0.961651 0.000000
vt 0.271329 0.735520
vt 0.266388 0.740336
vt 0.542659 0.740336
vt 0.271329 0.475856
vt 0.818929 0.471039
vt 0.609138 0.675535
vt 0.609138 0.535840
vt 0.752450 0.535840
vt 0.752450 0.675535
vt 0.618874 0.545330
vt 0.742714 0.666045
vt 0.818929 0.610734
vt 0.832012 0.731449
vt 0.818929 0.731449
vt 0.858178 0.610734
vt 0.871261 0.731449
vt 0.858178 0.731449
vt 0.845095 0.610734
vt 0.858178 0.610734
vt 0.845095 0.731449
vt 0.832012 0.610734
vt 0.845095 0.610734
vt 0.742714 0.545330
vt 0.618874 0.666045
vt 1.000000 0.000000
vt 0.981416 0.471039
vt 0.942477 0.269297
vt 0.961651 0.269297
vt 0.832012 0.610734
vt 0.871261 0.610734
vt 0.845095 0.731449
vn 0.0000 -1.0000 0.0000
vn 0.0000 0.0000 1.0000
vn -1.0000 0.0000 0.0000
vn 1.0000 0.0000 0.0000
vn 0.0000 0.0000 -1.0000
vn 0.0000 1.0000 0.0000
vn -0.4590 0.8884 0.0000
vn 0.4590 0.8884 0.0000
vn 0.0000 0.8884 -0.4590
vn 0.0000 0.8884 0.4590
vn -0.1749 0.9846 0.0000
vn 0.0000 0.9846 0.1749
vn 0.1749 0.9846 0.0000
vn 0.0000 0.9846 -0.1749
s off
f 3/1/1 2/2/1 1/3/1
f 29/4/2 28/5/2 30/6/2
f 1/7/3 9/8/3 3/9/3
f 4/10/4 11/11/4 2/12/4
f 2/13/2 12/14/2 1/15/2
f 3/16/5 10/17/5 4/18/5
f 27/19/6 25/20/6 26/21/6
f 31/22/5 26/21/5 32/23/5
f 30/6/3 27/19/3 31/22/3
f 32/23/4 25/20/4 29/4/4
f 30/24/1 39/25/1 29/26/1
f 29/26/1 38/27/1 32/28/1
f 31/29/1 37/30/1 30/24/1
f 32/28/1 40/31/1 31/29/1
f 3/1/1 4/32/1 2/2/1
f 29/4/2 25/20/2 28/5/2
f 1/7/3 12/33/3 9/8/3
f 4/10/4 10/34/4 11/11/4
f 2/13/2 11/35/2 12/14/2
f 3/16/5 9/36/5 10/17/5
f 27/19/6 28/5/6 25/20/6
f 31/22/5 27/19/5 26/21/5
f 30/6/3 28/5/3 27/19/3
f 32/23/4 26/21/4 25/20/4
f 30/24/1 37/30/1 39/25/1
f 29/26/1 39/25/1 38/27/1
f 31/29/1 40/31/1 37/30/1
f 32/28/1 38/27/1 40/31/1
f 21/37/7 14/38/7 22/39/7
f 23/40/8 16/41/8 24/42/8
f 11/43/1 19/44/1 18/45/1
f 10/46/1 17/47/1 19/44/1
f 17/48/5 16/49/5 19/50/5
f 18/51/2 14/52/2 20/53/2
f 19/54/4 15/55/4 18/56/4
f 20/57/3 13/58/3 17/48/3
f 12/59/1 18/45/1 20/60/1
f 24/42/9 13/61/9 21/37/9
f 9/62/1 20/60/1 17/47/1
f 22/39/10 15/63/10 23/40/10
f 5/64/11 22/39/11 6/65/11
f 6/65/12 23/40/12 7/66/12
f 7/66/13 24/42/13 8/67/13
f 8/67/14 21/37/14 5/64/14
f 7/66/6 34/68/6 6/65/6
f 5/64/6 36/69/6 8/67/6
f 34/70/4 39/71/4 33/72/4
f 36/73/3 40/74/3 35/75/3
f 35/75/5 38/76/5 34/77/5
f 33/78/2 37/79/2 36/80/2
f 8/67/6 35/81/6 7/66/6
f 6/65/6 33/82/6 5/64/6
f 21/37/7 13/61/7 14/38/7
f 23/40/8 15/63/8 16/41/8
f 11/43/1 10/46/1 19/44/1
f 10/46/1 9/62/1 17/47/1
f 17/48/5 13/83/5 16/49/5
f 18/51/2 15/84/2 14/52/2
f 19/54/4 16/85/4 15/55/4
f 20/57/3 14/86/3 13/58/3
f 12/59/1 11/43/1 18/45/1
f 24/42/9 16/41/9 13/61/9
f 9/62/1 12/59/1 20/60/1
f 22/39/10 14/38/10 15/63/10
f 5/64/11 21/37/11 22/39/11
f 6/65/12 22/39/12 23/40/12
f 7/66/13 23/40/13 24/42/13
f 8/67/14 24/42/14 21/37/14
f 7/66/6 35/81/6 34/68/6
f 5/64/6 33/82/6 36/69/6
f 34/70/4 38/87/4 39/71/4
f 36/73/3 37/88/3 40/74/3
f 35/75/5 40/89/5 38/76/5
f 33/78/2 39/71/2 37/79/2
f 8/67/6 36/69/6 35/81/6
f 6/65/6 34/68/6 33/82/6
