# Blender v2.79 (sub 0) OBJ File: 'Bar.blend'
# www.blender.org
o bottle_7_Circle.008
v -0.131491 0.000000 -0.098797
v -0.262982 0.000000 0.000000
v -0.131491 0.000000 0.098797
v 0.131491 0.000000 0.098797
v 0.262982 0.000000 0.000000
v 0.131491 0.000000 -0.098797
v -0.162564 0.062167 -0.122144
v -0.325128 0.062167 0.000000
v -0.162564 0.062167 0.122144
v 0.162564 0.062167 0.122144
v 0.325128 0.062167 0.000000
v 0.162564 0.062167 -0.122144
v -0.184235 0.155418 -0.138427
v -0.368471 0.155418 0.000000
v -0.184235 0.155418 0.138427
v 0.184235 0.155418 0.138427
v 0.368471 0.155418 0.000000
v 0.184236 0.155418 -0.138427
v -0.162025 0.699380 -0.121739
v -0.324050 0.699380 0.000000
v -0.162025 0.699380 0.121739
v 0.162025 0.699380 0.121739
v 0.324050 0.699380 0.000000
v 0.162025 0.699380 -0.121739
v -0.107994 0.774491 -0.083088
v -0.218577 0.774491 0.000000
v -0.107994 0.774491 0.083088
v 0.113174 0.774491 0.083088
v 0.223757 0.774491 0.000000
v 0.113174 0.774491 -0.083088
v -0.028207 0.826292 -0.053027
v -0.059005 0.826292 0.000000
v -0.028207 0.826292 0.053027
v 0.033387 0.826292 0.053027
v 0.064185 0.826292 0.000000
v 0.033387 0.826292 -0.053027
v -0.028207 0.949317 -0.053027
v -0.059005 0.949317 0.000000
v -0.028207 0.949317 0.053027
v 0.033387 0.949317 0.053027
v 0.064185 0.949317 0.000000
v 0.033387 0.949317 -0.053027
v -0.039949 0.964425 -0.073244
v -0.082488 0.964425 0.000000
v -0.039949 0.964425 0.073244
v 0.045129 0.964425 0.073244
v 0.087668 0.964425 0.000000
v 0.045129 0.964425 -0.073244
v -0.039949 1.055075 -0.073244
v -0.082488 1.055075 0.000000
v -0.039949 1.055075 0.073244
v 0.045129 1.055075 0.073244
v 0.087668 1.055075 0.000000
v 0.045129 1.055075 -0.073244
v 0.180560 0.641528 -0.135665
v -0.180560 0.641528 0.135665
v 0.180560 0.641528 0.135665
v -0.180560 0.641528 -0.135665
v 0.361120 0.641528 0.000000
v -0.361120 0.641528 0.000000
vt 0.111685 0.019971
vt 0.081214 0.034731
vt 0.078912 0.020304
vt 0.312479 0.023780
vt 0.342368 0.039684
vt 0.301895 0.037737
vt 0.146110 0.020038
vt 0.176524 0.034917
vt 0.136008 0.034348
vt 0.078311 0.035212
vt 0.019521 0.022863
vt 0.071920 0.022074
vt 0.238263 0.023289
vt 0.179425 0.035409
vt 0.185867 0.022295
vt 0.287629 0.037224
vt 0.248163 0.055579
vt 0.247120 0.036256
vt 0.121732 0.034320
vt 0.082913 0.054008
vt 0.339939 0.058883
vt 0.294071 0.056676
vt 0.174749 0.054187
vt 0.128833 0.053542
vt 0.013529 0.036188
vt 0.290586 0.153494
vt 0.245593 0.152418
vt 0.173645 0.151054
vt 0.134376 0.162857
vt 0.128644 0.150422
vt 0.009495 0.055115
vt 0.083641 0.150879
vt 0.011688 0.151963
vt 0.177113 0.162979
vt 0.284387 0.165702
vt 0.244013 0.164737
vt 0.122864 0.162834
vt 0.082481 0.163244
vt 0.336230 0.168056
vt 0.310929 0.186049
vt 0.295891 0.166116
vt 0.174757 0.163423
vt 0.150903 0.182672
vt 0.069615 0.179784
vt 0.015559 0.163764
vt 0.080127 0.162791
vt 0.241676 0.164204
vt 0.187559 0.180014
vt 0.267955 0.184502
vt 0.240399 0.183843
vt 0.106260 0.182585
vt 0.078698 0.182865
vt 0.338460 0.187373
vt 0.335279 0.208957
vt 0.178463 0.183059
vt 0.176018 0.204739
vt 0.041624 0.192142
vt 0.025547 0.180448
vt 0.231624 0.180849
vt 0.203229 0.192248
vt 0.242021 0.205600
vt 0.230636 0.201161
vt 0.081059 0.204554
vt 0.069530 0.200505
vt 0.156019 0.215831
vt 0.143350 0.240117
vt 0.143801 0.215606
vt 0.131132 0.239892
vt 0.119312 0.215155
vt 0.131584 0.215381
vt 0.168291 0.216057
vt 0.155568 0.240342
vt 0.180509 0.216282
vt 0.167840 0.240568
vt 0.192727 0.216507
vt 0.180058 0.240793
vt 0.333845 0.225274
vt 0.348185 0.231039
vt 0.343123 0.233309
vt 0.319228 0.249207
vt 0.309893 0.236890
vt 0.315401 0.237545
vt 0.330534 0.253842
vt 0.315178 0.252999
vt 0.321764 0.227112
vt 0.335368 0.219940
vt 0.345743 0.251561
vt 0.330796 0.259401
vt 0.318682 0.222480
vt 0.077449 0.216739
vt 0.060450 0.234761
vt 0.060495 0.216697
vt 0.026738 0.216614
vt 0.009739 0.234637
vt 0.009784 0.216573
vt 0.094327 0.216781
vt 0.077404 0.234803
vt 0.043616 0.216656
vt 0.026693 0.234678
vt 0.111206 0.216822
vt 0.094283 0.234845
vt 0.043572 0.234720
vt 0.335539 0.155656
vt 0.276130 0.195242
vt 0.309150 0.202262
vt 0.281410 0.211353
vt 0.278076 0.022541
vt 0.245311 0.021758
vt 0.224795 0.214214
vt 0.277000 0.253854
vt 0.224595 0.253589
vt 0.198493 0.233769
vt 0.277200 0.214480
vt 0.303302 0.234300
vt 0.297920 0.214863
vt 0.287360 0.182642
vt 0.303870 0.186152
vt 0.345216 0.025354
vt 0.178882 0.020498
vt 0.244203 0.036637
vt 0.346953 0.205348
vt 0.187563 0.200734
vt 0.053897 0.191957
vt 0.215501 0.192480
vt 0.118860 0.239666
vt 0.192275 0.241018
vt 0.341356 0.248167
vt 0.111162 0.234886
vn -0.5358 -0.8443 0.0000
vn -0.3016 -0.3438 -0.8893
vn -0.1490 -0.8004 -0.5806
vn 0.5358 -0.8443 0.0000
vn 0.3016 -0.3438 -0.8893
vn 0.8457 -0.5336 0.0000
vn -0.3016 -0.3438 0.8893
vn -0.8457 -0.5336 0.0000
vn 0.1490 -0.8004 -0.5806
vn 0.1490 -0.8004 0.5806
vn -0.1490 -0.8004 0.5806
vn 0.3287 -0.1128 0.9377
vn 0.3016 -0.3438 0.8893
vn -0.3287 -0.1128 -0.9377
vn 0.3287 -0.1128 -0.9377
vn 0.9821 -0.1884 0.0000
vn -0.3287 -0.1128 0.9377
vn -0.9821 -0.1884 0.0000
vn 0.9667 0.2558 0.0000
vn 0.3292 0.1613 0.9304
vn -0.3292 0.1613 0.9304
vn -0.7662 0.6426 0.0000
vn -0.9667 0.2558 0.0000
vn -0.3292 0.1613 -0.9304
vn 0.3292 0.1613 -0.9304
vn -0.2841 0.4456 0.8490
vn 0.7711 0.6367 0.0000
vn 0.2831 0.4379 0.8532
vn -0.2841 0.4456 -0.8490
vn 0.2831 0.4379 -0.8532
vn 0.5266 0.8501 0.0000
vn -0.5126 0.8586 0.0000
vn -0.2268 0.6861 -0.6912
vn -0.2268 0.6861 0.6912
vn 0.2324 0.6831 0.6924
vn 0.2324 0.6831 -0.6924
vn 0.7650 0.6440 0.0000
vn -0.7650 0.6440 0.0000
vn 0.3436 0.4230 -0.8384
vn -0.3436 0.4230 0.8384
vn 0.3436 0.4230 0.8384
vn -0.3436 0.4230 -0.8384
vn -0.8298 -0.5580 0.0000
vn -0.4140 -0.5562 -0.7205
vn -0.4140 -0.5562 0.7205
vn 0.4140 -0.5562 0.7205
vn 0.8298 -0.5580 0.0000
vn 0.4520 -0.4237 -0.7849
vn 0.4140 -0.5562 -0.7205
vn -0.4520 -0.4237 0.7849
vn 0.4520 -0.4237 0.7849
vn -0.4520 -0.4237 -0.7849
vn 0.9056 -0.4241 0.0000
vn -0.9056 -0.4241 0.0000
vn -0.3952 0.6102 0.6866
vn 0.3952 0.6102 -0.6866
vn 0.3952 0.6102 0.6866
vn -0.3952 0.6102 -0.6866
vn 0.7927 0.6096 0.0000
vn -0.7927 0.6096 0.0000
s 1
f 2/1/1 7/2/2 1/3/3
f 5/4/4 12/5/5 11/6/6
f 2/7/1 9/8/7 8/9/8
f 7/10/2 6/11/9 1/12/3
f 4/13/10 9/14/7 3/15/11
f 11/16/6 16/17/12 10/18/13
f 8/19/8 13/20/14 7/2/2
f 11/6/6 18/21/15 17/22/16
f 8/9/8 15/23/17 14/24/18
f 13/20/14 12/25/5 7/10/2
f 9/14/7 16/17/12 15/23/17
f 18/21/15 59/26/19 17/22/16
f 57/27/20 15/23/17 16/17/12
f 56/28/21 20/29/22 60/30/23
f 18/31/15 58/32/24 55/33/25
f 57/27/20 21/34/26 56/28/21
f 57/27/20 23/35/27 22/36/28
f 58/32/24 20/37/22 19/38/29
f 24/39/30 29/40/31 23/41/27
f 21/42/26 26/43/32 20/29/22
f 25/44/33 24/45/30 19/46/29
f 22/47/28 27/48/34 21/34/26
f 22/36/28 29/49/31 28/50/35
f 19/38/29 26/51/32 25/52/33
f 30/53/36 35/54/37 29/40/31
f 27/55/34 32/56/38 26/43/32
f 25/44/33 36/57/39 30/58/36
f 28/59/35 33/60/40 27/48/34
f 28/50/35 35/61/37 34/62/41
f 25/52/33 32/63/38 31/64/42
f 33/65/40 38/66/43 32/67/38
f 37/68/44 36/69/39 31/70/42
f 34/71/41 39/72/45 33/65/40
f 35/73/37 40/74/46 34/71/41
f 32/67/38 37/68/44 31/70/42
f 36/75/39 41/76/47 35/73/37
f 37/77/44 48/78/48 42/79/49
f 40/80/46 45/81/50 39/82/45
f 41/83/47 46/84/51 40/80/46
f 38/85/43 43/86/52 37/77/44
f 41/83/47 48/87/48 47/88/53
f 38/85/43 45/81/50 44/89/54
f 46/90/51 51/91/55 45/92/50
f 43/93/52 54/94/56 48/95/48
f 47/96/53 52/97/57 46/90/51
f 44/98/54 49/99/58 43/93/52
f 48/100/48 53/101/59 47/96/53
f 45/92/50 50/102/60 44/98/54
f 55/103/25 23/41/27 59/26/19
f 49/104/58 52/105/57 54/106/56
f 59/26/19 16/17/12 17/22/16
f 60/30/23 13/20/14 14/24/18
f 15/23/17 60/30/23 14/24/18
f 58/32/24 24/45/30 55/33/25
f 5/107/4 10/18/13 4/108/10
f 1/109/3 4/110/10 3/111/11
f 3/111/11 2/112/1 1/109/3
f 1/109/3 6/113/9 5/114/4
f 5/114/4 4/110/10 1/109/3
f 53/115/59 54/106/56 52/105/57
f 49/104/58 50/116/60 51/117/55
f 51/117/55 52/105/57 49/104/58
f 2/1/1 8/19/8 7/2/2
f 5/4/4 6/118/9 12/5/5
f 2/7/1 3/119/11 9/8/7
f 7/10/2 12/25/5 6/11/9
f 4/13/10 10/120/13 9/14/7
f 11/16/6 17/22/16 16/17/12
f 8/19/8 14/24/18 13/20/14
f 11/6/6 12/5/5 18/21/15
f 8/9/8 9/8/7 15/23/17
f 13/20/14 18/31/15 12/25/5
f 9/14/7 10/120/13 16/17/12
f 18/21/15 55/103/25 59/26/19
f 57/27/20 56/28/21 15/23/17
f 56/28/21 21/42/26 20/29/22
f 18/31/15 13/20/14 58/32/24
f 57/27/20 22/47/28 21/34/26
f 57/27/20 59/26/19 23/35/27
f 58/32/24 60/30/23 20/37/22
f 24/39/30 30/53/36 29/40/31
f 21/42/26 27/55/34 26/43/32
f 25/44/33 30/58/36 24/45/30
f 22/47/28 28/59/35 27/48/34
f 22/36/28 23/35/27 29/49/31
f 19/38/29 20/37/22 26/51/32
f 30/53/36 36/121/39 35/54/37
f 27/55/34 33/122/40 32/56/38
f 25/44/33 31/123/42 36/57/39
f 28/59/35 34/124/41 33/60/40
f 28/50/35 29/49/31 35/61/37
f 25/52/33 26/51/32 32/63/38
f 33/65/40 39/72/45 38/66/43
f 37/68/44 42/125/49 36/69/39
f 34/71/41 40/74/46 39/72/45
f 35/73/37 41/76/47 40/74/46
f 32/67/38 38/66/43 37/68/44
f 36/75/39 42/126/49 41/76/47
f 37/77/44 43/86/52 48/78/48
f 40/80/46 46/84/51 45/81/50
f 41/83/47 47/88/53 46/84/51
f 38/85/43 44/89/54 43/86/52
f 41/83/47 42/127/49 48/87/48
f 38/85/43 39/82/45 45/81/50
f 46/90/51 52/97/57 51/91/55
f 43/93/52 49/99/58 54/94/56
f 47/96/53 53/101/59 52/97/57
f 44/98/54 50/102/60 49/99/58
f 48/100/48 54/128/56 53/101/59
f 45/92/50 51/91/55 50/102/60
f 55/103/25 24/39/30 23/41/27
f 59/26/19 57/27/20 16/17/12
f 60/30/23 58/32/24 13/20/14
f 15/23/17 56/28/21 60/30/23
f 58/32/24 19/46/29 24/45/30
f 5/107/4 11/16/6 10/18/13
