# Blender v2.79 (sub 0) OBJ File: 'Bar.blend'
# www.blender.org
o bottle_3_Circle.020
v -0.096063 0.000000 -0.166386
v -0.192126 0.000000 0.000000
v -0.096063 0.000000 0.166386
v 0.096063 0.000000 0.166386
v 0.192126 0.000000 0.000000
v 0.096063 0.000000 -0.166386
v -0.113397 0.029853 -0.196409
v -0.226793 0.029853 0.000000
v -0.113397 0.029853 0.196409
v 0.113397 0.029853 0.196409
v 0.226793 0.029853 0.000000
v 0.113397 0.029853 -0.196409
v -0.113397 0.450553 -0.196409
v -0.226793 0.450553 0.000000
v -0.113397 0.450553 0.196409
v 0.113397 0.450553 0.196409
v 0.226793 0.450553 0.000000
v 0.113397 0.450553 -0.196409
v -0.098647 0.615657 -0.170861
v -0.197293 0.615657 0.000000
v -0.098647 0.615657 0.170861
v 0.098646 0.615657 0.170861
v 0.197293 0.615657 0.000000
v 0.098647 0.615657 -0.170861
v -0.032751 0.817947 -0.056726
v -0.065502 0.817947 0.000000
v -0.032751 0.817947 0.056726
v 0.032751 0.817947 0.056726
v 0.065502 0.817947 0.000000
v 0.032751 0.817947 -0.056726
v 0.044740 0.890567 -0.077492
v 0.089480 0.890567 0.000000
v 0.044740 0.890567 0.077492
v -0.044740 0.890567 0.077492
v -0.089480 0.890567 0.000000
v -0.044740 0.890567 -0.077492
v -0.032751 0.890567 -0.056726
v -0.065502 0.890567 0.000000
v -0.032751 0.890567 0.056726
v 0.032751 0.890567 0.056726
v 0.065502 0.890567 0.000000
v 0.032751 0.890567 -0.056726
v 0.044740 1.092779 -0.077492
v 0.089480 1.092779 0.000000
v 0.044740 1.092779 0.077492
v -0.044740 1.092779 0.077492
v -0.089480 1.092779 0.000000
v -0.044740 1.092779 -0.077492
vt 0.738702 0.712565
vt 0.685648 0.726355
vt 0.689493 0.715267
vt 0.973952 0.725146
vt 0.918505 0.729360
vt 0.924339 0.718983
vt 0.748054 0.712248
vt 0.801929 0.722466
vt 0.743737 0.723165
vt 0.630679 0.720106
vt 0.680233 0.715821
vt 0.856115 0.713499
vt 0.806767 0.711749
vt 0.854397 0.827657
vt 0.860181 0.724531
vt 0.693559 0.829597
vt 0.977070 0.736635
vt 0.907594 0.833533
vt 0.747814 0.825929
vt 0.627152 0.731412
vt 0.801250 0.825279
vt 0.962361 0.843878
vt 0.901318 0.874015
vt 0.800780 0.866673
vt 0.749867 0.867675
vt 0.648532 0.880192
vt 0.637781 0.838302
vt 0.851365 0.868677
vt 0.698730 0.871928
vt 0.949992 0.884325
vt 0.905438 0.934761
vt 0.691694 0.933785
vt 0.815317 0.926894
vt 0.878349 0.931040
vt 0.737794 0.929297
vt 0.863776 0.965672
vt 0.857567 0.986064
vt 0.854569 0.980442
vt 0.768051 0.927279
vt 0.784955 0.926946
vt 0.962499 0.939028
vt 0.974341 0.922726
vt 0.974284 0.939127
vt 0.974168 0.971928
vt 0.962326 0.988230
vt 0.962384 0.971829
vt 0.974226 0.955527
vt 0.962441 0.955429
vt 0.974456 0.889925
vt 0.962614 0.906227
vt 0.962671 0.889827
vt 0.750386 0.941855
vt 0.772842 0.989986
vt 0.750437 0.990007
vt 0.974398 0.906326
vt 0.962556 0.922628
vt 0.838194 0.949726
vt 0.822620 0.964280
vt 0.835196 0.944104
vt 0.833805 0.985260
vt 0.837175 0.979854
vt 0.795246 0.989965
vt 0.817600 0.941792
vt 0.817650 0.989944
vt 0.855588 0.950314
vt 0.858958 0.944907
vt 0.828987 0.964496
vt 0.870143 0.965887
vt 0.683173 0.941919
vt 0.705628 0.990050
vt 0.683224 0.990071
vt 0.795195 0.941813
vt 0.728033 0.990029
vt 0.727982 0.941877
vt 0.886734 0.986511
vt 0.887773 0.955781
vt 0.913867 0.972046
vt 0.905516 0.956381
vt 0.878383 0.970846
vt 0.904477 0.987111
vt 0.654759 0.919625
vt 0.674325 0.956325
vt 0.591193 0.953514
vt 0.613193 0.918220
vt 0.652325 0.991620
vt 0.610759 0.990214
vt 0.865540 0.714012
vt 0.797351 0.711656
vt 0.921598 0.938184
vt 0.675028 0.936529
vt 0.832111 0.927559
vt 0.861764 0.929268
vt 0.720817 0.930709
vt 0.974111 0.988328
vt 0.772791 0.941834
vt 0.705578 0.941898
vt 0.914948 0.718103
vn -0.4407 -0.8976 0.0000
vn -0.4638 -0.3735 -0.8033
vn -0.2204 -0.8976 -0.3817
vn 0.2204 -0.8976 -0.3817
vn 0.9276 -0.3735 0.0000
vn 0.4407 -0.8976 0.0000
vn -0.4638 -0.3735 0.8033
vn -0.9276 -0.3735 0.0000
vn 0.2204 -0.8976 0.3817
vn -0.2204 -0.8976 0.3817
vn 0.4981 0.0859 0.8628
vn 0.4638 -0.3735 0.8033
vn -0.4981 0.0859 -0.8628
vn 0.4638 -0.3735 -0.8033
vn 0.9963 0.0859 0.0000
vn -0.9963 0.0859 0.0000
vn -0.4981 0.0859 0.8628
vn 0.4981 0.0859 -0.8628
vn 0.9374 0.3481 0.0000
vn -0.4687 0.3481 0.8119
vn -0.9374 0.3481 0.0000
vn 0.4687 0.3481 -0.8119
vn 0.4687 0.3481 0.8119
vn -0.4687 0.3481 -0.8119
vn 0.9497 0.3131 0.0000
vn -0.4748 0.3131 -0.8225
vn -0.4748 0.3131 0.8225
vn -0.9497 0.3131 0.0000
vn -0.2723 -0.8386 0.4717
vn -0.7924 -0.6100 0.0000
vn -0.5447 -0.8386 0.0000
vn 0.2723 -0.8386 0.4717
vn -0.2723 -0.8386 -0.4717
vn 0.4748 0.3131 -0.8225
vn 0.2723 -0.8386 -0.4717
vn -0.3962 0.6100 0.6862
vn -0.3962 -0.6100 0.6862
vn 0.5447 -0.8386 0.0000
vn 0.4748 0.3131 0.8225
vn 0.3962 -0.6100 -0.6862
vn 0.7924 -0.6100 0.0000
vn -0.3962 -0.6100 -0.6862
vn 0.3962 0.6100 -0.6862
vn 0.3962 -0.6100 0.6862
vn -0.3962 0.6100 -0.6862
vn 0.3962 0.6100 0.6862
vn -0.7924 0.6100 0.0000
vn 0.7924 0.6100 0.0000
s 1
f 2/1/1 7/2/2 1/3/3
f 6/4/4 11/5/5 5/6/6
f 2/7/1 9/8/7 8/9/8
f 7/2/2 6/10/4 1/11/3
f 4/12/9 9/8/7 3/13/10
f 11/5/5 16/14/11 10/15/12
f 8/9/8 13/16/13 7/2/2
f 12/17/14 17/18/15 11/5/5
f 9/8/7 14/19/16 8/9/8
f 13/16/13 12/20/14 7/2/2
f 10/15/12 15/21/17 9/8/7
f 18/22/18 23/23/19 17/18/15
f 14/19/16 21/24/20 20/25/21
f 13/16/13 24/26/22 18/27/18
f 16/14/11 21/24/20 15/21/17
f 16/14/11 23/23/19 22/28/23
f 14/19/16 19/29/24 13/16/13
f 24/30/22 29/31/25 23/23/19
f 25/32/26 24/26/22 19/29/24
f 22/28/23 27/33/27 21/24/20
f 29/34/25 22/28/23 23/23/19
f 26/35/28 19/29/24 20/25/21
f 39/36/29 35/37/30 38/38/31
f 26/39/28 21/24/20 27/40/27
f 27/41/27 40/42/32 39/43/29
f 37/44/33 30/45/34 25/46/26
f 38/47/31 25/46/26 26/48/28
f 42/49/35 29/50/25 30/51/34
f 39/43/29 26/48/28 27/41/27
f 46/52/36 35/53/30 34/54/37
f 41/55/38 28/56/39 29/50/25
f 41/57/38 31/58/40 32/59/41
f 38/38/31 36/60/42 37/61/33
f 36/62/42 43/63/43 31/64/40
f 40/65/32 32/59/41 33/66/44
f 36/60/42 42/67/35 37/61/33
f 40/65/32 34/68/37 39/36/29
f 43/69/43 32/70/41 31/71/40
f 35/53/30 48/72/45 36/62/42
f 33/73/44 46/52/36 34/54/37
f 32/70/41 45/74/46 33/73/44
f 47/75/47 45/76/46 43/77/43
f 45/76/46 44/78/48 43/77/43
f 47/75/47 46/79/36 45/76/46
f 43/77/43 48/80/45 47/75/47
f 5/81/6 4/82/9 1/83/3
f 1/83/3 6/84/4 5/81/6
f 3/85/10 2/86/1 1/83/3
f 1/83/3 4/82/9 3/85/10
f 4/87/9 11/5/5 10/15/12
f 2/1/1 8/9/8 7/2/2
f 6/4/4 12/17/14 11/5/5
f 2/7/1 3/88/10 9/8/7
f 7/2/2 12/20/14 6/10/4
f 4/12/9 10/15/12 9/8/7
f 11/5/5 17/18/15 16/14/11
f 8/9/8 14/19/16 13/16/13
f 12/17/14 18/22/18 17/18/15
f 9/8/7 15/21/17 14/19/16
f 13/16/13 18/27/18 12/20/14
f 10/15/12 16/14/11 15/21/17
f 18/22/18 24/30/22 23/23/19
f 14/19/16 15/21/17 21/24/20
f 13/16/13 19/29/24 24/26/22
f 16/14/11 22/28/23 21/24/20
f 16/14/11 17/18/15 23/23/19
f 14/19/16 20/25/21 19/29/24
f 24/30/22 30/89/34 29/31/25
f 25/32/26 30/90/34 24/26/22
f 22/28/23 28/91/39 27/33/27
f 29/34/25 28/92/39 22/28/23
f 26/35/28 25/93/26 19/29/24
f 39/36/29 34/68/37 35/37/30
f 26/39/28 20/25/21 21/24/20
f 27/41/27 28/56/39 40/42/32
f 37/44/33 42/94/35 30/45/34
f 38/47/31 37/44/33 25/46/26
f 42/49/35 41/55/38 29/50/25
f 39/43/29 38/47/31 26/48/28
f 46/52/36 47/95/47 35/53/30
f 41/55/38 40/42/32 28/56/39
f 41/57/38 42/67/35 31/58/40
f 38/38/31 35/37/30 36/60/42
f 36/62/42 48/72/45 43/63/43
f 40/65/32 41/57/38 32/59/41
f 36/60/42 31/58/40 42/67/35
f 40/65/32 33/66/44 34/68/37
f 43/69/43 44/96/48 32/70/41
f 35/53/30 47/95/47 48/72/45
f 33/73/44 45/74/46 46/52/36
f 32/70/41 44/96/48 45/74/46
f 4/87/9 5/97/6 11/5/5
