# Blender v2.79 (sub 0) OBJ File: 'Bar.blend'
# www.blender.org
o bottle_5_Plane.013
v 0.159101 0.000000 0.105531
v 0.105531 0.000000 0.159101
v -0.105531 0.000000 0.159101
v -0.159101 0.000000 0.105531
v 0.105531 0.000000 -0.159101
v 0.159101 0.000000 -0.105531
v -0.159101 0.000000 -0.105531
v -0.105531 0.000000 -0.159101
v 0.105531 0.605014 0.159101
v 0.159101 0.605014 0.105531
v -0.159101 0.605014 0.105531
v -0.105531 0.605014 0.159101
v 0.159101 0.605014 -0.105531
v 0.105531 0.605014 -0.159101
v -0.105531 0.605014 -0.159101
v -0.159101 0.605014 -0.105531
v -0.027449 0.660721 -0.066003
v -0.066081 0.660721 -0.027262
v -0.066003 0.660721 0.027449
v -0.027262 0.660721 0.066081
v 0.027449 0.660721 0.066003
v 0.066081 0.660721 0.027262
v 0.066003 0.660721 -0.027449
v 0.027262 0.660721 -0.066081
v -0.027449 0.759350 -0.066003
v -0.066081 0.759350 -0.027262
v -0.066003 0.759350 0.027449
v -0.027262 0.759350 0.066081
v 0.027449 0.759350 0.066003
v 0.066081 0.759350 0.027262
v 0.066003 0.759350 -0.027449
v 0.027262 0.759350 -0.066081
v -0.034979 0.759350 -0.084109
v -0.084208 0.759350 -0.034740
v -0.084109 0.759350 0.034979
v -0.034740 0.759350 0.084208
v 0.034979 0.759350 0.084109
v 0.084208 0.759350 0.034740
v 0.084109 0.759350 -0.034979
v 0.034740 0.759350 -0.084208
v -0.034979 0.850014 -0.084109
v -0.084208 0.850014 -0.034740
v -0.084109 0.850014 0.034979
v -0.034740 0.850014 0.084208
v 0.034979 0.850014 0.084109
v 0.084208 0.850014 0.034740
v 0.084109 0.850014 -0.034979
v 0.034740 0.850014 -0.084208
vt 0.649148 0.345768
vt 0.590106 0.515015
vt 0.590106 0.345768
vt 0.408442 0.345768
vt 0.349400 0.515015
vt 0.349399 0.345768
vt 0.488677 0.345768
vt 0.429635 0.515015
vt 0.429635 0.345768
vt 0.568913 0.345768
vt 0.509871 0.515015
vt 0.509870 0.345768
vt 0.408442 0.515015
vt 0.670342 0.515015
vt 0.649149 0.515015
vt 0.404633 0.556306
vt 0.452582 0.557198
vt 0.416294 0.566218
vt 0.456044 0.578107
vt 0.425728 0.628771
vt 0.418775 0.581321
vt 0.405667 0.635603
vt 0.410900 0.594445
vt 0.337865 0.578107
vt 0.382966 0.594409
vt 0.368181 0.628771
vt 0.341327 0.557199
vt 0.375123 0.581266
vt 0.386358 0.519012
vt 0.377643 0.566170
vt 0.407551 0.519012
vt 0.389328 0.556286
vt 0.584403 0.682727
vt 0.569098 0.655137
vt 0.584403 0.655137
vt 0.523183 0.682727
vt 0.507878 0.655137
vt 0.523183 0.655137
vt 0.569098 0.682727
vt 0.553793 0.655137
vt 0.507878 0.682727
vt 0.492573 0.655137
vt 0.553793 0.682727
vt 0.538488 0.655137
vt 0.477269 0.682727
vt 0.461964 0.655137
vt 0.477269 0.655137
vt 0.492573 0.682727
vt 0.619437 0.625778
vt 0.636841 0.630846
vt 0.621536 0.630846
vt 0.638940 0.672863
vt 0.621536 0.667795
vt 0.636841 0.667795
vt 0.652731 0.639569
vt 0.647663 0.641668
vt 0.605646 0.659072
vt 0.610714 0.656973
vt 0.647663 0.656973
vt 0.605646 0.639569
vt 0.610714 0.641668
vt 0.452630 0.649217
vt 0.433127 0.623855
vt 0.452630 0.623855
vt 0.472133 0.649217
vt 0.472133 0.623855
vt 0.530643 0.623855
vt 0.511140 0.649217
vt 0.511140 0.623855
vt 0.589153 0.649217
vt 0.569650 0.623855
vt 0.589153 0.623855
vt 0.491637 0.623855
vt 0.569650 0.649217
vt 0.550147 0.623855
vt 0.491637 0.649217
vt 0.550147 0.649217
vt 0.404175 0.670011
vt 0.370880 0.683802
vt 0.357089 0.650507
vt 0.592367 0.519012
vt 0.666395 0.533997
vt 0.651409 0.608026
vt 0.592367 0.608026
vt 0.577381 0.593040
vt 0.577381 0.533997
vt 0.651409 0.519012
vt 0.666395 0.593040
vt 0.370880 0.636716
vt 0.390384 0.636716
vt 0.404175 0.650507
vt 0.390384 0.683802
vt 0.357089 0.670011
vt 0.488677 0.515015
vt 0.568913 0.515015
vt 0.670342 0.345768
vt 0.396406 0.599360
vt 0.538488 0.682727
vt 0.461964 0.682727
vt 0.638940 0.625778
vt 0.619437 0.672863
vt 0.652731 0.659072
vt 0.433127 0.649217
vt 0.530643 0.649217
vn 0.7173 -0.6302 -0.2971
vn 0.8043 0.4830 0.3459
vn 0.7173 -0.6302 0.2971
vn -0.2971 -0.6302 -0.7173
vn 0.3459 0.4830 -0.8043
vn 0.2971 -0.6302 -0.7173
vn -0.7173 -0.6302 0.2971
vn -0.8043 0.4830 -0.3459
vn -0.7173 -0.6302 -0.2971
vn 0.2971 -0.6302 0.7173
vn -0.3459 0.4830 0.8043
vn -0.2971 -0.6302 0.7173
vn -0.3459 0.4830 -0.8043
vn 0.8043 0.4830 -0.3459
vn -0.2795 0.5937 0.7546
vn 0.3459 0.4830 0.8043
vn 0.2817 0.5939 0.7536
vn 0.7546 0.5937 0.2795
vn 0.7536 0.5939 -0.2817
vn 0.2795 0.5937 -0.7546
vn -0.2817 0.5939 -0.7536
vn -0.8043 0.4830 0.3459
vn -0.7546 0.5937 -0.2795
vn -0.7536 0.5939 0.2817
vn 0.2267 -0.8042 -0.5494
vn -0.2267 -0.8042 0.5494
vn 0.5488 -0.8042 -0.2282
vn -0.5488 -0.8042 0.2282
vn 0.5495 -0.8042 0.2267
vn -0.2282 -0.8042 -0.5488
vn -0.5495 -0.8042 -0.2267
vn 0.2961 -0.6302 -0.7177
vn -0.2961 -0.6302 0.7177
vn 0.7177 -0.6302 0.2961
vn -0.7177 -0.6302 -0.2961
vn 0.2282 -0.8042 0.5488
vn -0.2981 -0.6302 -0.7168
vn -0.2981 0.6302 -0.7168
vn -0.7177 0.6302 -0.2961
vn 0.2981 -0.6302 0.7168
vn -0.2961 0.6302 0.7177
vn 0.2961 0.6302 -0.7177
vn 0.7168 -0.6302 -0.2981
vn -0.7168 -0.6302 0.2981
vn 0.7168 0.6302 -0.2981
vn -0.7168 0.6302 0.2981
vn 0.7177 0.6302 0.2961
vn 0.2981 0.6302 0.7168
s 1
f 6/1/1 10/2/2 1/3/3
f 8/4/4 14/5/5 5/6/6
f 4/7/7 16/8/8 7/9/9
f 2/10/10 12/11/11 3/12/12
f 12/11/11 4/7/7 3/12/12
f 8/4/4 16/8/8 15/13/13
f 10/2/2 2/10/10 1/3/3
f 6/1/1 14/14/5 13/15/14
f 20/16/15 9/17/16 21/18/17
f 10/19/2 21/18/17 9/17/16
f 13/20/14 22/21/18 10/19/2
f 14/22/5 23/23/19 13/20/14
f 15/24/13 24/25/20 14/26/5
f 16/27/8 17/28/21 15/24/13
f 11/29/22 18/30/23 16/27/8
f 12/31/11 19/32/24 11/29/22
f 32/33/25 23/34/19 24/35/20
f 28/36/26 19/37/24 20/38/15
f 31/39/27 22/40/18 23/34/19
f 27/41/28 18/42/23 19/37/24
f 30/43/29 21/44/17 22/40/18
f 25/45/30 24/46/20 17/47/21
f 26/48/31 17/47/21 18/42/23
f 21/44/17 28/36/26 20/38/15
f 40/49/32 31/50/27 32/51/25
f 36/52/33 27/53/28 28/54/26
f 31/50/27 38/55/34 30/56/29
f 27/53/28 34/57/35 26/58/31
f 38/55/34 29/59/36 30/56/29
f 33/60/37 32/51/25 25/61/30
f 34/57/35 25/61/30 26/58/31
f 29/59/36 36/52/33 28/54/26
f 41/62/38 40/63/32 33/64/37
f 42/65/39 33/64/37 34/66/35
f 37/67/40 44/68/41 36/69/33
f 48/70/42 39/71/43 40/72/32
f 44/68/41 35/73/44 36/69/33
f 47/74/45 38/75/34 39/71/43
f 43/76/46 34/66/35 35/73/44
f 46/77/47 37/67/40 38/75/34
f 46/78/47 48/79/42 42/80/39
f 6/81/1 2/82/10 4/83/7
f 4/83/7 7/84/9 8/85/4
f 8/85/4 5/86/6 6/81/1
f 6/81/1 1/87/3 2/82/10
f 2/82/10 3/88/12 4/83/7
f 4/83/7 8/85/4 6/81/1
f 42/80/39 43/89/46 44/90/41
f 44/90/41 45/91/48 46/78/47
f 46/78/47 47/92/45 48/79/42
f 48/79/42 41/93/38 42/80/39
f 42/80/39 44/90/41 46/78/47
f 6/1/1 13/15/14 10/2/2
f 8/4/4 15/13/13 14/5/5
f 4/7/7 11/94/22 16/8/8
f 2/10/10 9/95/16 12/11/11
f 12/11/11 11/94/22 4/7/7
f 8/4/4 7/9/9 16/8/8
f 10/2/2 9/95/16 2/10/10
f 6/1/1 5/96/6 14/14/5
f 20/16/15 12/31/11 9/17/16
f 10/19/2 22/21/18 21/18/17
f 13/20/14 23/23/19 22/21/18
f 14/22/5 24/97/20 23/23/19
f 15/24/13 17/28/21 24/25/20
f 16/27/8 18/30/23 17/28/21
f 11/29/22 19/32/24 18/30/23
f 12/31/11 20/16/15 19/32/24
f 32/33/25 31/39/27 23/34/19
f 28/36/26 27/41/28 19/37/24
f 31/39/27 30/43/29 22/40/18
f 27/41/28 26/48/31 18/42/23
f 30/43/29 29/98/36 21/44/17
f 25/45/30 32/99/25 24/46/20
f 26/48/31 25/45/30 17/47/21
f 21/44/17 29/98/36 28/36/26
f 40/49/32 39/100/43 31/50/27
f 36/52/33 35/101/44 27/53/28
f 31/50/27 39/100/43 38/55/34
f 27/53/28 35/101/44 34/57/35
f 38/55/34 37/102/40 29/59/36
f 33/60/37 40/49/32 32/51/25
f 34/57/35 33/60/37 25/61/30
f 29/59/36 37/102/40 36/52/33
f 41/62/38 48/103/42 40/63/32
f 42/65/39 41/62/38 33/64/37
f 37/67/40 45/104/48 44/68/41
f 48/70/42 47/74/45 39/71/43
f 44/68/41 43/76/46 35/73/44
f 47/74/45 46/77/47 38/75/34
f 43/76/46 42/65/39 34/66/35
f 46/77/47 45/104/48 37/67/40
